<?xml version="1.0" encoding="UTF-8"?>
<!DOCTYPE svg PUBLIC "-//W3C//DTD SVG 1.1//EN" "http://www.w3.org/Graphics/SVG/1.1/DTD/svg11.dtd">
<svg xmlns="http://www.w3.org/2000/svg" version="1.1" width="2560px" height="1440px" style="shape-rendering:geometricPrecision; text-rendering:geometricPrecision; image-rendering:optimizeQuality; fill-rule:evenodd; clip-rule:evenodd" xmlns:xlink="http://www.w3.org/1999/xlink">
<g><path style="opacity:1" fill="#e7d8cd" d="M -0.5,-0.5 C 852.833,-0.5 1706.17,-0.5 2559.5,-0.5C 2559.5,479.5 2559.5,959.5 2559.5,1439.5C 1706.17,1439.5 852.833,1439.5 -0.5,1439.5C -0.5,959.5 -0.5,479.5 -0.5,-0.5 Z"/></g>
<g><path style="opacity:1" fill="#fe80ab" d="M 951.5,213.5 C 968.041,211.721 983.708,214.555 998.5,222C 1013.52,232.515 1022.02,247.015 1024,265.5C 1026.33,283.182 1024,300.182 1017,316.5C 1004.79,336.196 986.952,345.862 963.5,345.5C 928.077,344.576 907.91,326.576 903,291.5C 901.366,276.849 902.7,262.516 907,248.5C 915.551,228.777 930.384,217.11 951.5,213.5 Z"/></g>
<g><path style="opacity:1" fill="#eec1c3" d="M 657.5,215.5 C 643.656,215.171 629.99,215.504 616.5,216.5C 615.957,216.44 615.624,216.107 615.5,215.5C 629.661,214.174 643.661,214.174 657.5,215.5 Z"/></g>
<g><path style="opacity:1" fill="#fe80ab" d="M 218.5,215.5 C 239.863,215.11 261.197,215.61 282.5,217C 306.687,221.178 316.854,235.345 313,259.5C 311.469,265.563 308.636,270.897 304.5,275.5C 315.229,285.189 319.062,297.189 316,311.5C 313.693,323.81 306.86,332.643 295.5,338C 290.062,340.422 284.395,342.088 278.5,343C 258.503,343.5 238.503,343.667 218.5,343.5C 218.5,300.833 218.5,258.167 218.5,215.5 Z"/></g>
<g><path style="opacity:1" fill="#fe80ab" d="M 451.5,215.5 C 451.5,247.5 451.5,279.5 451.5,311.5C 456.5,311.5 461.5,311.5 466.5,311.5C 466.5,333.5 466.5,355.5 466.5,377.5C 454.833,377.5 443.167,377.5 431.5,377.5C 431.5,366.167 431.5,354.833 431.5,343.5C 411.167,343.5 390.833,343.5 370.5,343.5C 370.5,354.833 370.5,366.167 370.5,377.5C 358.833,377.5 347.167,377.5 335.5,377.5C 335.5,355.5 335.5,333.5 335.5,311.5C 339.042,311.813 342.375,311.479 345.5,310.5C 360.228,280.605 369.228,248.938 372.5,215.5C 398.833,215.5 425.167,215.5 451.5,215.5 Z"/></g>
<g><path style="opacity:1" fill="#fe80ab" d="M 508.5,343.5 C 508.5,311.5 508.5,279.5 508.5,247.5C 498.833,247.5 489.167,247.5 479.5,247.5C 479.5,236.833 479.5,226.167 479.5,215.5C 501.5,215.5 523.5,215.5 545.5,215.5C 545.5,230.167 545.5,244.833 545.5,259.5C 559.304,258.96 572.304,261.793 584.5,268C 601.238,280.342 606.405,296.509 600,316.5C 595.315,328.52 586.815,336.354 574.5,340C 569.322,341.798 563.989,342.798 558.5,343C 541.837,343.5 525.17,343.667 508.5,343.5 Z"/></g>
<g><path style="opacity:1" fill="#fe80ab" d="M 657.5,215.5 C 664.154,227.473 671.321,239.14 679,250.5C 685.833,239 692.667,227.5 699.5,216C 713.167,215.333 726.833,215.333 740.5,216C 726.992,236.681 713.992,257.681 701.5,279C 715.288,300.292 729.288,321.459 743.5,342.5C 729.167,343.833 714.833,343.833 700.5,342.5C 693.084,329.999 685.417,317.665 677.5,305.5C 670.084,318.001 662.417,330.335 654.5,342.5C 640.846,343.666 627.179,343.833 613.5,343C 627.303,321.033 641.303,299.199 655.5,277.5C 642.24,257.308 629.24,236.975 616.5,216.5C 629.99,215.504 643.656,215.171 657.5,215.5 Z"/></g>
<g><path style="opacity:1" fill="#fe80ab" d="M 762.5,215.5 C 774.5,215.5 786.5,215.5 798.5,215.5C 798.5,230.5 798.5,245.5 798.5,260.5C 809.833,260.5 821.167,260.5 832.5,260.5C 832.5,245.5 832.5,230.5 832.5,215.5C 844.833,215.5 857.167,215.5 869.5,215.5C 869.5,258.167 869.5,300.833 869.5,343.5C 857.167,343.5 844.833,343.5 832.5,343.5C 832.5,326.833 832.5,310.167 832.5,293.5C 821.167,293.5 809.833,293.5 798.5,293.5C 798.5,310.167 798.5,326.833 798.5,343.5C 786.5,343.5 774.5,343.5 762.5,343.5C 762.5,300.833 762.5,258.167 762.5,215.5 Z"/></g>
<g><path style="opacity:1" fill="#fe80ab" d="M 1057.5,215.5 C 1076.5,215.333 1095.5,215.5 1114.5,216C 1146.35,218.838 1158.18,235.671 1150,266.5C 1148.22,269.941 1146.06,273.108 1143.5,276C 1152.7,282.571 1156.7,291.571 1155.5,303C 1156.18,320.314 1148.51,332.314 1132.5,339C 1127.95,340.741 1123.28,342.074 1118.5,343C 1098.17,343.5 1077.84,343.667 1057.5,343.5C 1057.5,300.833 1057.5,258.167 1057.5,215.5 Z"/></g>
<g><path style="opacity:1" fill="#fe81ab" d="M 1221.5,215.5 C 1240.83,215.5 1260.17,215.5 1279.5,215.5C 1279.5,258.167 1279.5,300.833 1279.5,343.5C 1266.83,343.5 1254.17,343.5 1241.5,343.5C 1241.5,328.833 1241.5,314.167 1241.5,299.5C 1238.35,299.047 1235.85,300.047 1234,302.5C 1225.96,316.083 1217.79,329.583 1209.5,343C 1195.5,343.667 1181.5,343.667 1167.5,343C 1179.42,325.17 1191.08,307.17 1202.5,289C 1186.55,276.466 1181.38,260.299 1187,240.5C 1190.78,231.724 1196.94,225.224 1205.5,221C 1210.84,218.841 1216.18,217.008 1221.5,215.5 Z"/></g>
<g><path style="opacity:1" fill="#fe80ab" d="M 1316.5,215.5 C 1335.5,215.333 1354.5,215.5 1373.5,216C 1405.35,218.838 1417.18,235.671 1409,266.5C 1407.22,269.941 1405.06,273.108 1402.5,276C 1411.7,282.571 1415.7,291.571 1414.5,303C 1415.18,320.314 1407.51,332.314 1391.5,339C 1386.95,340.741 1382.28,342.074 1377.5,343C 1357.17,343.5 1336.84,343.667 1316.5,343.5C 1316.5,300.833 1316.5,258.167 1316.5,215.5 Z"/></g>
<g><path style="opacity:1" fill="#fe80ab" d="M 1474.5,214.5 C 1487.75,214.177 1500.91,214.511 1514,215.5C 1529.34,258.031 1544.18,300.698 1558.5,343.5C 1545.48,343.832 1532.48,343.499 1519.5,342.5C 1516.83,334.151 1514.16,325.818 1511.5,317.5C 1499.94,316.18 1488.44,316.18 1477,317.5C 1474.19,326.097 1471.69,334.764 1469.5,343.5C 1456.16,343.667 1442.83,343.5 1429.5,343C 1444.8,300.273 1459.8,257.439 1474.5,214.5 Z"/></g>
<g><path style="opacity:1" fill="#fe80ab" d="M 1616.5,215.5 C 1616.5,247.5 1616.5,279.5 1616.5,311.5C 1624.68,311.826 1632.68,311.492 1640.5,310.5C 1640.5,278.833 1640.5,247.167 1640.5,215.5C 1652.83,215.5 1665.17,215.5 1677.5,215.5C 1677.5,247.167 1677.5,278.833 1677.5,310.5C 1685.5,310.5 1693.5,310.5 1701.5,310.5C 1701.5,278.833 1701.5,247.167 1701.5,215.5C 1713.83,215.5 1726.17,215.5 1738.5,215.5C 1738.5,247.5 1738.5,279.5 1738.5,311.5C 1744.17,311.5 1749.83,311.5 1755.5,311.5C 1755.5,333.5 1755.5,355.5 1755.5,377.5C 1743.5,377.5 1731.5,377.5 1719.5,377.5C 1719.5,366.167 1719.5,354.833 1719.5,343.5C 1673.17,343.5 1626.83,343.5 1580.5,343.5C 1580.5,300.833 1580.5,258.167 1580.5,215.5C 1592.5,215.5 1604.5,215.5 1616.5,215.5 Z"/></g>
<g><path style="opacity:1" fill="#efbac1" d="M 1616.5,215.5 C 1617.5,246.996 1617.83,278.662 1617.5,310.5C 1625.17,310.5 1632.83,310.5 1640.5,310.5C 1632.68,311.492 1624.68,311.826 1616.5,311.5C 1616.5,279.5 1616.5,247.5 1616.5,215.5 Z"/></g>
<g><path style="opacity:1" fill="#fe80ab" d="M 1815.5,215.5 C 1815.17,239.176 1815.5,262.843 1816.5,286.5C 1817.11,286.376 1817.44,286.043 1817.5,285.5C 1831.35,262.306 1845.35,239.139 1859.5,216C 1872.5,215.5 1885.5,215.333 1898.5,215.5C 1898.5,258.167 1898.5,300.833 1898.5,343.5C 1887.5,343.5 1876.5,343.5 1865.5,343.5C 1865.67,319.498 1865.5,295.498 1865,271.5C 1864.28,272.044 1863.78,272.711 1863.5,273.5C 1849.64,296.722 1835.64,319.889 1821.5,343C 1808.17,343.5 1794.84,343.667 1781.5,343.5C 1781.5,300.833 1781.5,258.167 1781.5,215.5C 1792.83,215.5 1804.17,215.5 1815.5,215.5 Z"/></g>
<g><path style="opacity:1" fill="#f996b3" d="M 1815.5,215.5 C 1816.17,238.833 1816.83,262.167 1817.5,285.5C 1817.44,286.043 1817.11,286.376 1816.5,286.5C 1815.5,262.843 1815.17,239.176 1815.5,215.5 Z"/></g>
<g><path style="opacity:1" fill="#fe81ab" d="M 1970.5,215.5 C 1989.83,215.5 2009.17,215.5 2028.5,215.5C 2028.5,258.167 2028.5,300.833 2028.5,343.5C 2015.83,343.5 2003.17,343.5 1990.5,343.5C 1990.5,328.833 1990.5,314.167 1990.5,299.5C 1987.35,299.047 1984.85,300.047 1983,302.5C 1974.96,316.083 1966.79,329.583 1958.5,343C 1944.5,343.667 1930.5,343.667 1916.5,343C 1928.42,325.17 1940.08,307.17 1951.5,289C 1935.55,276.466 1930.38,260.299 1936,240.5C 1939.78,231.724 1945.94,225.224 1954.5,221C 1959.84,218.841 1965.18,217.008 1970.5,215.5 Z"/></g>
<g><path style="opacity:1" fill="#fe80ab" d="M 2153.5,215.5 C 2153.5,226.167 2153.5,236.833 2153.5,247.5C 2142.99,247.172 2132.65,247.506 2122.5,248.5C 2122.5,280.167 2122.5,311.833 2122.5,343.5C 2110.17,343.5 2097.83,343.5 2085.5,343.5C 2085.5,311.833 2085.5,280.167 2085.5,248.5C 2075.17,248.5 2064.83,248.5 2054.5,248.5C 2054.5,237.5 2054.5,226.5 2054.5,215.5C 2087.5,215.5 2120.5,215.5 2153.5,215.5 Z"/></g>
<g><path style="opacity:1" fill="#e8d8cc" d="M 957.5,246.5 C 966.565,245.054 974.399,247.387 981,253.5C 985.138,261.821 986.971,270.655 986.5,280C 987.326,291.191 983.993,300.857 976.5,309C 956.684,317.009 944.851,310.509 941,289.5C 939.875,279.347 940.542,269.347 943,259.5C 945.584,252.487 950.417,248.154 957.5,246.5 Z"/></g>
<g><path style="opacity:1" fill="#f3acbb" d="M 2153.5,215.5 C 2154.49,226.321 2154.83,237.321 2154.5,248.5C 2143.83,248.5 2133.17,248.5 2122.5,248.5C 2132.65,247.506 2142.99,247.172 2153.5,247.5C 2153.5,236.833 2153.5,226.167 2153.5,215.5 Z"/></g>
<g><path style="opacity:1" fill="#e9d5cb" d="M 255.5,247.5 C 261.262,247.149 266.928,247.649 272.5,249C 277.414,252.171 277.747,255.837 273.5,260C 267.593,261.361 261.593,261.861 255.5,261.5C 255.5,256.833 255.5,252.167 255.5,247.5 Z"/></g>
<g><path style="opacity:1" fill="#e8d8cc" d="M 414.5,248.5 C 414.5,269.167 414.5,289.833 414.5,310.5C 404.652,310.827 394.986,310.494 385.5,309.5C 393.218,289.733 398.885,269.4 402.5,248.5C 406.5,248.5 410.5,248.5 414.5,248.5 Z"/></g>
<g><path style="opacity:1" fill="#f3abbb" d="M 414.5,248.5 C 415.497,269.327 415.831,290.327 415.5,311.5C 405.145,311.832 394.812,311.499 384.5,310.5C 384.624,309.893 384.957,309.56 385.5,309.5C 394.986,310.494 404.652,310.827 414.5,310.5C 414.5,289.833 414.5,269.167 414.5,248.5 Z"/></g>
<g><path style="opacity:1" fill="#efbdc2" d="M 479.5,247.5 C 489.167,247.5 498.833,247.5 508.5,247.5C 508.5,279.5 508.5,311.5 508.5,343.5C 507.502,312.004 507.168,280.338 507.5,248.5C 497.985,248.827 488.652,248.494 479.5,247.5 Z"/></g>
<g><path style="opacity:1" fill="#e8d5cb" d="M 1094.5,247.5 C 1100.58,247.196 1106.58,247.696 1112.5,249C 1116.5,252.667 1116.5,256.333 1112.5,260C 1106.59,261.361 1100.59,261.861 1094.5,261.5C 1094.5,256.833 1094.5,252.167 1094.5,247.5 Z"/></g>
<g><path style="opacity:1" fill="#e8d8cc" d="M 1229.5,248.5 C 1233.5,248.5 1237.5,248.5 1241.5,248.5C 1241.5,254.5 1241.5,260.5 1241.5,266.5C 1237.15,266.666 1232.82,266.499 1228.5,266C 1222.89,262.723 1221.06,257.89 1223,251.5C 1224.73,249.549 1226.9,248.549 1229.5,248.5 Z"/></g>
<g><path style="opacity:1" fill="#f2b0bd" d="M 1229.5,248.5 C 1233.63,247.515 1237.97,247.182 1242.5,247.5C 1242.82,254.022 1242.49,260.355 1241.5,266.5C 1241.5,260.5 1241.5,254.5 1241.5,248.5C 1237.5,248.5 1233.5,248.5 1229.5,248.5 Z"/></g>
<g><path style="opacity:1" fill="#e8d5cb" d="M 1353.5,247.5 C 1359.58,247.196 1365.58,247.696 1371.5,249C 1375.5,252.667 1375.5,256.333 1371.5,260C 1365.59,261.361 1359.59,261.861 1353.5,261.5C 1353.5,256.833 1353.5,252.167 1353.5,247.5 Z"/></g>
<g><path style="opacity:1" fill="#e8d8cc" d="M 1978.5,248.5 C 1982.5,248.5 1986.5,248.5 1990.5,248.5C 1990.5,254.5 1990.5,260.5 1990.5,266.5C 1986.15,266.666 1981.82,266.499 1977.5,266C 1971.89,262.723 1970.06,257.89 1972,251.5C 1973.73,249.549 1975.9,248.549 1978.5,248.5 Z"/></g>
<g><path style="opacity:1" fill="#f2b0bd" d="M 1978.5,248.5 C 1982.63,247.515 1986.97,247.182 1991.5,247.5C 1991.82,254.022 1991.49,260.355 1990.5,266.5C 1990.5,260.5 1990.5,254.5 1990.5,248.5C 1986.5,248.5 1982.5,248.5 1978.5,248.5 Z"/></g>
<g><path style="opacity:1" fill="#e9d5cb" d="M 1500.5,281.5 C 1496.5,282.833 1492.5,282.833 1488.5,281.5C 1489.51,275.148 1491.51,269.148 1494.5,263.5C 1497.42,269.166 1499.42,275.166 1500.5,281.5 Z"/></g>
<g><path style="opacity:1" fill="#f996b3" d="M 1865.5,343.5 C 1864.83,320.167 1864.17,296.833 1863.5,273.5C 1863.78,272.711 1864.28,272.044 1865,271.5C 1865.5,295.498 1865.67,319.498 1865.5,343.5 Z"/></g>
<g><path style="opacity:1" fill="#f3abbb" d="M 1488.5,281.5 C 1492.5,282.833 1496.5,282.833 1500.5,281.5C 1501.04,281.56 1501.38,281.893 1501.5,282.5C 1496.83,283.833 1492.17,283.833 1487.5,282.5C 1487.62,281.893 1487.96,281.56 1488.5,281.5 Z"/></g>
<g><path style="opacity:1" fill="#e8d7cc" d="M 545.5,292.5 C 551.345,292.151 557.012,292.984 562.5,295C 567.34,301.621 566.006,306.621 558.5,310C 554.152,310.465 549.819,310.965 545.5,311.5C 545.5,305.167 545.5,298.833 545.5,292.5 Z"/></g>
<g><path style="opacity:1" fill="#e8d8cc" d="M 255.5,293.5 C 262.257,293.123 268.924,293.623 275.5,295C 278.428,298.257 279.262,302.091 278,306.5C 276.786,308.049 275.286,309.215 273.5,310C 267.509,310.499 261.509,310.666 255.5,310.5C 255.5,304.833 255.5,299.167 255.5,293.5 Z"/></g>
<g><path style="opacity:1" fill="#e8d7cc" d="M 1094.5,293.5 C 1100.84,293.334 1107.18,293.5 1113.5,294C 1118.07,296.541 1119.57,300.375 1118,305.5C 1116.46,307.378 1114.62,308.878 1112.5,310C 1106.51,310.499 1100.51,310.666 1094.5,310.5C 1094.5,304.833 1094.5,299.167 1094.5,293.5 Z"/></g>
<g><path style="opacity:1" fill="#e8d7cc" d="M 1353.5,293.5 C 1359.84,293.334 1366.18,293.5 1372.5,294C 1377.07,296.541 1378.57,300.375 1377,305.5C 1375.46,307.378 1373.62,308.878 1371.5,310C 1365.51,310.499 1359.51,310.666 1353.5,310.5C 1353.5,304.833 1353.5,299.167 1353.5,293.5 Z"/></g>
<g><path style="opacity:1" fill="#f999b4" d="M 345.5,310.5 C 342.375,311.479 339.042,311.813 335.5,311.5C 335.5,333.5 335.5,355.5 335.5,377.5C 334.503,355.34 334.169,333.006 334.5,310.5C 338.167,310.5 341.833,310.5 345.5,310.5 Z"/></g>
<g><path style="opacity:1" fill="#f1b3be" d="M 451.5,215.5 C 452.498,246.996 452.832,278.662 452.5,310.5C 457.5,310.5 462.5,310.5 467.5,310.5C 467.831,333.006 467.497,355.34 466.5,377.5C 466.5,355.5 466.5,333.5 466.5,311.5C 461.5,311.5 456.5,311.5 451.5,311.5C 451.5,279.5 451.5,247.5 451.5,215.5 Z"/></g>
<g><path style="opacity:1" fill="#a3c1ef" d="M 1356.5,429.5 C 1361.3,429.121 1365.96,429.621 1370.5,431C 1387.67,442.999 1404.17,455.832 1420,469.5C 1422,474.833 1422,480.167 1420,485.5C 1406.84,517.366 1386,542.866 1357.5,562C 1334.5,574.751 1309.83,581.251 1283.5,581.5C 1265.69,580.149 1247.86,579.149 1230,578.5C 1187.26,578.519 1149.76,592.353 1117.5,620C 1093.93,641.881 1073.77,666.381 1057,693.5C 1040.67,723.493 1023.34,752.826 1005,781.5C 976.555,821.267 939.388,849.767 893.5,867C 844.359,884.281 793.692,893.615 741.5,895C 657.335,898.529 576.668,883.529 499.5,850C 465.156,834.512 433.49,815.012 404.5,791.5C 400.909,787.454 399.743,782.788 401,777.5C 408.587,728.821 417.92,680.488 429,632.5C 432.736,623.882 439.236,620.382 448.5,622C 517.898,654.355 589.898,679.355 664.5,697C 700.03,705.441 736.03,708.775 772.5,707C 798.063,705.943 822.063,699.276 844.5,687C 876.152,669.408 904.652,647.575 930,621.5C 949.807,599.205 969.141,576.539 988,553.5C 999.167,541.667 1010.33,529.833 1021.5,518C 1047.44,495.206 1077.78,482.539 1112.5,480C 1149.18,479.295 1185.85,479.795 1222.5,481.5C 1257.52,483.326 1290.52,476.16 1321.5,460C 1326.17,456.667 1330.83,453.333 1335.5,450C 1342.45,442.882 1349.45,436.049 1356.5,429.5 Z"/></g>
<g><path style="opacity:1" fill="#fefefe" d="M 1680.5,493.5 C 1727.92,489.761 1752.59,511.595 1754.5,559C 1751.24,610.906 1723.91,632.24 1672.5,623C 1650.53,616.027 1637.36,601.194 1633,578.5C 1629.57,559.175 1631.57,540.508 1639,522.5C 1648.35,506.303 1662.18,496.636 1680.5,493.5 Z"/></g>
<g><path style="opacity:1" fill="#fefefe" d="M 2240.5,493.5 C 2258.37,492.511 2275.21,496.178 2291,504.5C 2288.02,514.933 2284.52,525.266 2280.5,535.5C 2272.63,532.402 2264.63,529.569 2256.5,527C 2242.14,524.7 2232.97,530.533 2229,544.5C 2226.05,558.313 2227.38,571.646 2233,584.5C 2235.66,588.161 2239.16,590.661 2243.5,592C 2258.27,593.123 2272.27,590.29 2285.5,583.5C 2286.83,594.833 2286.83,606.167 2285.5,617.5C 2262.02,628.215 2238.68,628.048 2215.5,617C 2204.22,609.314 2196.72,598.814 2193,585.5C 2186.89,562.547 2189.23,540.547 2200,519.5C 2209.73,504.939 2223.23,496.273 2240.5,493.5 Z"/></g>
<g><path style="opacity:1" fill="#fefefe" d="M 1494.5,495.5 C 1529.17,495.5 1563.83,495.5 1598.5,495.5C 1598.5,538.167 1598.5,580.833 1598.5,623.5C 1586.17,623.5 1573.83,623.5 1561.5,623.5C 1561.5,591.833 1561.5,560.167 1561.5,528.5C 1551.5,528.5 1541.5,528.5 1531.5,528.5C 1531.5,560.167 1531.5,591.833 1531.5,623.5C 1519.17,623.5 1506.83,623.5 1494.5,623.5C 1494.5,580.833 1494.5,538.167 1494.5,495.5 Z"/></g>
<g><path style="opacity:1" fill="#fefefe" d="M 1810.5,495.5 C 1837.17,495.5 1863.83,495.5 1890.5,495.5C 1890.5,527.167 1890.5,558.833 1890.5,590.5C 1895.5,590.5 1900.5,590.5 1905.5,590.5C 1905.5,612.833 1905.5,635.167 1905.5,657.5C 1893.5,657.5 1881.5,657.5 1869.5,657.5C 1869.5,646.167 1869.5,634.833 1869.5,623.5C 1849.5,623.5 1829.5,623.5 1809.5,623.5C 1809.5,634.833 1809.5,646.167 1809.5,657.5C 1797.17,657.5 1784.83,657.5 1772.5,657.5C 1772.33,635.497 1772.5,613.497 1773,591.5C 1777,590.833 1781,590.167 1785,589.5C 1798.68,559.61 1807.18,528.276 1810.5,495.5 Z"/></g>
<g><path style="opacity:1" fill="#fefefe" d="M 1931.5,495.5 C 1943.83,495.5 1956.17,495.5 1968.5,495.5C 1968.33,509.837 1968.5,524.171 1969,538.5C 1979.38,524.244 1989.88,510.078 2000.5,496C 2014.18,495.167 2027.85,495.334 2041.5,496.5C 2026.36,516.809 2011.03,536.975 1995.5,557C 2011.59,579.178 2027.92,601.178 2044.5,623C 2030.17,623.667 2015.83,623.667 2001.5,623C 1990.54,608.255 1979.71,593.422 1969,578.5C 1968.5,593.496 1968.33,608.496 1968.5,623.5C 1956.17,623.5 1943.83,623.5 1931.5,623.5C 1931.5,580.833 1931.5,538.167 1931.5,495.5 Z"/></g>
<g><path style="opacity:1" fill="#fefefe" d="M 2090.5,494.5 C 2103.41,494.178 2116.25,494.511 2129,495.5C 2144.09,538.042 2159.26,580.542 2174.5,623C 2161.17,623.5 2147.84,623.667 2134.5,623.5C 2132.32,614.779 2129.82,606.112 2127,597.5C 2115.56,596.18 2104.06,596.18 2092.5,597.5C 2089.83,605.849 2087.16,614.182 2084.5,622.5C 2071.52,623.499 2058.52,623.832 2045.5,623.5C 2059.9,580.288 2074.9,537.288 2090.5,494.5 Z"/></g>
<g><path style="opacity:1" fill="#fefefe" d="M 2407.5,495.5 C 2407.5,506.167 2407.5,516.833 2407.5,527.5C 2396.99,527.172 2386.65,527.506 2376.5,528.5C 2376.5,560.167 2376.5,591.833 2376.5,623.5C 2364.17,623.5 2351.83,623.5 2339.5,623.5C 2339.5,591.833 2339.5,560.167 2339.5,528.5C 2329.17,528.5 2318.83,528.5 2308.5,528.5C 2308.5,517.5 2308.5,506.5 2308.5,495.5C 2341.5,495.5 2374.5,495.5 2407.5,495.5 Z"/></g>
<g><path style="opacity:1" fill="#e8d9cd" d="M 1685.5,526.5 C 1701.9,523.611 1711.74,530.277 1715,546.5C 1715.83,556.545 1715.5,566.545 1714,576.5C 1709.32,589.266 1700.15,594.433 1686.5,592C 1677.81,589.313 1672.65,583.479 1671,574.5C 1669.04,564.162 1669.04,553.829 1671,543.5C 1673.26,535.427 1678.09,529.76 1685.5,526.5 Z"/></g>
<g><path style="opacity:1" fill="#f3ece6" d="M 2407.5,495.5 C 2408.49,506.321 2408.83,517.321 2408.5,528.5C 2397.83,528.5 2387.17,528.5 2376.5,528.5C 2386.65,527.506 2396.99,527.172 2407.5,527.5C 2407.5,516.833 2407.5,506.167 2407.5,495.5 Z"/></g>
<g><path style="opacity:1" fill="#e8dace" d="M 1840.5,527.5 C 1844.83,527.5 1849.17,527.5 1853.5,527.5C 1853.5,548.833 1853.5,570.167 1853.5,591.5C 1843.5,591.5 1833.5,591.5 1823.5,591.5C 1826.89,580.821 1830.39,570.154 1834,559.5C 1837.11,549.016 1839.27,538.349 1840.5,527.5 Z"/></g>
<g><path style="opacity:1" fill="#e9dcd1" d="M 2109.5,541.5 C 2112.2,548.615 2114.54,555.949 2116.5,563.5C 2112.17,563.5 2107.83,563.5 2103.5,563.5C 2104.93,555.982 2106.93,548.648 2109.5,541.5 Z"/></g>
<g><path style="opacity:1" fill="#a5c1ee" d="M 1419.5,752.5 C 1435.27,749.356 1443.27,755.689 1443.5,771.5C 1443.99,780.271 1441.82,788.271 1437,795.5C 1430.57,801.542 1423.4,802.709 1415.5,799C 1413.38,797.269 1411.88,795.102 1411,792.5C 1408.54,782.192 1411.7,774.358 1420.5,769C 1426.25,767.277 1430.75,768.777 1434,773.5C 1435.31,762.313 1430.48,757.98 1419.5,760.5C 1418.77,757.734 1418.77,755.068 1419.5,752.5 Z"/></g>
<g><path style="opacity:1" fill="#a5c1ee" d="M 1071.5,755.5 C 1074.5,755.5 1077.5,755.5 1080.5,755.5C 1078,766.164 1075.84,776.83 1074,787.5C 1081.5,777.167 1089,766.833 1096.5,756.5C 1100.45,755.509 1104.45,755.176 1108.5,755.5C 1105.63,770.526 1102.63,785.526 1099.5,800.5C 1096.5,800.5 1093.5,800.5 1090.5,800.5C 1092.75,789.772 1094.91,779.105 1097,768.5C 1089.38,778.912 1081.88,789.412 1074.5,800C 1070.51,800.499 1066.51,800.666 1062.5,800.5C 1065.37,785.474 1068.37,770.474 1071.5,755.5 Z"/></g>
<g><path style="opacity:1" fill="#a5c1ee" d="M 1124.5,765.5 C 1129.27,765.191 1133.93,765.691 1138.5,767C 1138.83,767.333 1139.17,767.667 1139.5,768C 1138.33,770.007 1137.66,772.173 1137.5,774.5C 1124.81,772.022 1119.31,777.356 1121,790.5C 1124.76,794.094 1128.93,794.428 1133.5,791.5C 1134.65,793.765 1134.81,796.098 1134,798.5C 1116.58,805.092 1109.25,799.092 1112,780.5C 1114.24,773.77 1118.41,768.77 1124.5,765.5 Z"/></g>
<g><path style="opacity:1" fill="#a5c1ee" d="M 1161.5,765.5 C 1167.2,764.436 1171.37,766.436 1174,771.5C 1179.47,764.48 1185.47,763.814 1192,769.5C 1192.96,771.199 1193.46,773.033 1193.5,775C 1191.99,783.55 1190.33,792.05 1188.5,800.5C 1185.5,800.5 1182.5,800.5 1179.5,800.5C 1181.09,791.535 1182.43,782.535 1183.5,773.5C 1177.62,772.862 1174.12,775.528 1173,781.5C 1171.62,787.803 1170.45,794.136 1169.5,800.5C 1166.1,800.82 1162.77,800.487 1159.5,799.5C 1161.96,791.295 1163.46,782.962 1164,774.5C 1159.63,772.52 1156.63,773.853 1155,778.5C 1152.32,785.597 1150.82,792.93 1150.5,800.5C 1147.17,800.5 1143.83,800.5 1140.5,800.5C 1142.56,789.832 1144.72,779.166 1147,768.5C 1149.11,766.709 1151.61,766.042 1154.5,766.5C 1154.34,768.199 1154.51,769.866 1155,771.5C 1157.06,769.266 1159.23,767.266 1161.5,765.5 Z"/></g>
<g><path style="opacity:1" fill="#a5c1ee" d="M 1211.5,765.5 C 1222.76,763.28 1229.09,767.78 1230.5,779C 1230.8,791.934 1224.63,799.434 1212,801.5C 1200.26,798.703 1196.26,791.37 1200,779.5C 1201.87,773.136 1205.71,768.469 1211.5,765.5 Z"/></g>
<g><path style="opacity:1" fill="#a5c1ee" d="M 1254.5,765.5 C 1260.2,764.436 1264.37,766.436 1267,771.5C 1269.26,781.509 1267.09,790.342 1260.5,798C 1254.52,803.164 1249.19,802.664 1244.5,796.5C 1243.16,802.508 1241.83,808.508 1240.5,814.5C 1237.57,815.484 1234.57,815.817 1231.5,815.5C 1234.22,799.75 1237.38,784.083 1241,768.5C 1243.11,766.709 1245.61,766.042 1248.5,766.5C 1248.34,767.873 1248.51,769.207 1249,770.5C 1250.73,768.598 1252.56,766.931 1254.5,765.5 Z"/></g>
<g><path style="opacity:1" fill="#a6c1ee" d="M 1377.5,765.5 C 1383.11,764.908 1388.44,765.741 1393.5,768C 1392.44,770.406 1391.1,772.573 1389.5,774.5C 1381.94,771.378 1377.1,773.712 1375,781.5C 1372.51,793.179 1376.68,796.512 1387.5,791.5C 1388.78,794.034 1388.78,796.534 1387.5,799C 1369.69,804.528 1362.52,798.028 1366,779.5C 1367.9,773.112 1371.73,768.445 1377.5,765.5 Z"/></g>
<g><path style="opacity:1" fill="#c5cdde" d="M 1450.5,766.5 C 1456.98,765.509 1463.65,765.176 1470.5,765.5C 1470.74,766.791 1470.4,767.791 1469.5,768.5C 1463.59,766.544 1457.25,765.877 1450.5,766.5 Z"/></g>
<g><path style="opacity:1" fill="#a5c1ee" d="M 1590.5,765.5 C 1593.19,765.336 1595.85,765.503 1598.5,766C 1600.67,766.833 1602.17,768.333 1603,770.5C 1604.7,767.091 1607.53,765.758 1611.5,766.5C 1609.18,777.776 1607.18,789.109 1605.5,800.5C 1603.17,800.5 1600.83,800.5 1598.5,800.5C 1598.66,799.127 1598.49,797.793 1598,796.5C 1590.24,803.929 1583.91,802.929 1579,793.5C 1577.11,781.629 1580.95,772.295 1590.5,765.5 Z"/></g>
<g><path style="opacity:1" fill="#a6c1ee" d="M 1692.5,765.5 C 1708.91,764.959 1714.74,772.626 1710,788.5C 1704.09,801.304 1695.09,804.304 1683,797.5C 1676.79,783.966 1679.96,773.299 1692.5,765.5 Z"/></g>
<g><path style="opacity:1" fill="#a5c1ee" d="M 1722.5,765.5 C 1724.83,765.5 1727.17,765.5 1729.5,765.5C 1728.81,771.599 1730.15,772.099 1733.5,767C 1738.65,764.496 1743.15,765.329 1747,769.5C 1749.64,778.256 1748.64,786.589 1744,794.5C 1738.13,802.658 1731.8,803.325 1725,796.5C 1723.83,802.846 1722.66,809.18 1721.5,815.5C 1718.5,815.5 1715.5,815.5 1712.5,815.5C 1715.19,798.703 1718.53,782.037 1722.5,765.5 Z"/></g>
<g><path style="opacity:1" fill="#a6c1ee" d="M 1767.5,765.5 C 1771.51,765.334 1775.51,765.501 1779.5,766C 1786.69,770.797 1787.35,776.464 1781.5,783C 1776.23,785.996 1770.56,787.162 1764.5,786.5C 1764.16,792.326 1766.82,794.826 1772.5,794C 1774.87,793.265 1777.2,792.432 1779.5,791.5C 1780.83,793.833 1780.83,796.167 1779.5,798.5C 1760.11,805.272 1752.28,798.605 1756,778.5C 1758.3,772.706 1762.13,768.373 1767.5,765.5 Z"/></g>
<g><path style="opacity:1" fill="#a5c1ee" d="M 1279.5,765.5 C 1282.5,765.5 1285.5,765.5 1288.5,765.5C 1286.28,774.423 1284.78,783.423 1284,792.5C 1288.37,794.48 1291.37,793.147 1293,788.5C 1295.47,781.659 1297.31,774.659 1298.5,767.5C 1301.43,766.516 1304.43,766.183 1307.5,766.5C 1305.7,777.607 1303.37,788.607 1300.5,799.5C 1298.17,800.833 1295.83,800.833 1293.5,799.5C 1294.48,797.902 1294.65,796.235 1294,794.5C 1291.29,798.356 1287.62,800.689 1283,801.5C 1276.53,800.181 1273.7,796.181 1274.5,789.5C 1275.41,781.301 1277.07,773.301 1279.5,765.5 Z"/></g>
<g><path style="opacity:1" fill="#a6c2ee" d="M 1317.5,765.5 C 1320.5,765.5 1323.5,765.5 1326.5,765.5C 1324.03,774.341 1322.86,783.341 1323,792.5C 1327.67,793.556 1330.67,791.556 1332,786.5C 1333.79,779.864 1335.46,773.197 1337,766.5C 1340.06,765.549 1343.22,765.216 1346.5,765.5C 1343.53,777.037 1341.19,788.703 1339.5,800.5C 1337.17,800.5 1334.83,800.5 1332.5,800.5C 1332.66,798.473 1332.5,796.473 1332,794.5C 1328.35,800.748 1323.18,802.581 1316.5,800C 1312.7,795.909 1311.53,791.076 1313,785.5C 1314.2,778.723 1315.7,772.057 1317.5,765.5 Z"/></g>
<g><path style="opacity:1" fill="#a4c1ef" d="M 1450.5,766.5 C 1457.25,765.877 1463.59,766.544 1469.5,768.5C 1468.73,772.14 1468.06,775.807 1467.5,779.5C 1473.97,778.345 1479.47,780.011 1484,784.5C 1485.67,793.326 1482.17,798.826 1473.5,801C 1468.56,802.041 1463.89,801.374 1459.5,799C 1458.3,798.097 1457.47,796.931 1457,795.5C 1456.29,788.737 1456.79,782.07 1458.5,775.5C 1459.4,774.791 1459.74,773.791 1459.5,772.5C 1456.17,772.5 1452.83,772.5 1449.5,772.5C 1449.5,771.5 1449.5,770.5 1449.5,769.5C 1449.26,768.209 1449.6,767.209 1450.5,766.5 Z"/></g>
<g><path style="opacity:1" fill="#a5c1ee" d="M 1493.5,765.5 C 1496.52,765.335 1499.52,765.502 1502.5,766C 1504.12,769.033 1505.46,772.2 1506.5,775.5C 1509.18,772.81 1511.52,769.81 1513.5,766.5C 1517.17,765.167 1520.83,765.167 1524.5,766.5C 1519.83,772.167 1515.17,777.833 1510.5,783.5C 1513.13,789.085 1515.46,794.751 1517.5,800.5C 1514.17,800.5 1510.83,800.5 1507.5,800.5C 1507.03,796.938 1505.87,793.605 1504,790.5C 1501.38,793.576 1498.88,796.742 1496.5,800C 1492.83,800.667 1489.17,800.667 1485.5,800C 1490.9,794.525 1495.56,788.525 1499.5,782C 1497.06,776.631 1495.06,771.131 1493.5,765.5 Z"/></g>
<g><path style="opacity:1" fill="#a5c1ee" d="M 1545.5,765.5 C 1548.5,765.5 1551.5,765.5 1554.5,765.5C 1553.71,769.872 1552.71,774.206 1551.5,778.5C 1555.11,779.489 1558.77,779.823 1562.5,779.5C 1563.43,775.204 1564.26,770.87 1565,766.5C 1568.12,765.213 1571.29,765.213 1574.5,766.5C 1572.16,777.841 1569.83,789.175 1567.5,800.5C 1564.5,800.5 1561.5,800.5 1558.5,800.5C 1558.78,795.773 1559.45,791.107 1560.5,786.5C 1556.83,786.5 1553.17,786.5 1549.5,786.5C 1549.05,791.202 1548.38,795.868 1547.5,800.5C 1544.5,800.5 1541.5,800.5 1538.5,800.5C 1540.22,788.683 1542.55,777.016 1545.5,765.5 Z"/></g>
<g><path style="opacity:1" fill="#a5c1ee" d="M 1636.5,765.5 C 1641.1,765.2 1645.6,765.533 1650,766.5C 1650.17,774.188 1650.67,781.855 1651.5,789.5C 1655.24,781.685 1659.24,774.018 1663.5,766.5C 1667.78,765.508 1672.12,765.174 1676.5,765.5C 1674.55,776.528 1672.38,787.528 1670,798.5C 1667.54,800.321 1664.71,800.988 1661.5,800.5C 1662.37,793.055 1663.53,785.722 1665,778.5C 1661.08,785.342 1657.41,792.342 1654,799.5C 1650.94,800.451 1647.78,800.784 1644.5,800.5C 1644.62,792.13 1644.12,783.797 1643,775.5C 1641.43,783.834 1639.93,792.167 1638.5,800.5C 1635.48,800.665 1632.48,800.498 1629.5,800C 1632.02,788.566 1634.35,777.066 1636.5,765.5 Z"/></g>
<g><path style="opacity:1" fill="#c3cbdf" d="M 1449.5,769.5 C 1449.5,770.5 1449.5,771.5 1449.5,772.5C 1452.83,772.5 1456.17,772.5 1459.5,772.5C 1459.74,773.791 1459.4,774.791 1458.5,775.5C 1455.66,773.598 1452.33,772.931 1448.5,773.5C 1448.23,771.901 1448.57,770.568 1449.5,769.5 Z"/></g>
<g><path style="opacity:1" fill="#e4d7ce" d="M 1770.5,772.5 C 1775.38,771.404 1777.04,773.071 1775.5,777.5C 1772.64,779.98 1769.31,780.98 1765.5,780.5C 1765.67,776.821 1767.33,774.154 1770.5,772.5 Z"/></g>
<g><path style="opacity:1" fill="#e6d8cd" d="M 1213.5,773.5 C 1219.24,772.073 1221.57,774.24 1220.5,780C 1220.68,783.746 1219.84,787.246 1218,790.5C 1215.29,793.978 1212.29,794.311 1209,791.5C 1207.44,784.648 1208.94,778.648 1213.5,773.5 Z"/></g>
<g><path style="opacity:1" fill="#e6d8cd" d="M 1251.5,773.5 C 1256.92,772.094 1259.25,774.094 1258.5,779.5C 1258.56,783.056 1257.72,786.389 1256,789.5C 1250.46,795.492 1247.29,794.492 1246.5,786.5C 1246.41,781.428 1248.08,777.095 1251.5,773.5 Z"/></g>
<g><path style="opacity:1" fill="#e5d8ce" d="M 1594.5,772.5 C 1598.63,772.965 1600.63,775.299 1600.5,779.5C 1600.24,783.45 1599.07,787.117 1597,790.5C 1594.87,793.458 1592.21,794.124 1589,792.5C 1587.02,784.668 1588.86,778.002 1594.5,772.5 Z"/></g>
<g><path style="opacity:1" fill="#e6d8cd" d="M 1694.5,773.5 C 1699.92,772.094 1702.25,774.094 1701.5,779.5C 1701.45,783.354 1700.62,787.021 1699,790.5C 1692.81,795.459 1689.64,793.959 1689.5,786C 1689.38,781.082 1691.05,776.915 1694.5,773.5 Z"/></g>
<g><path style="opacity:1" fill="#e6d8cd" d="M 1732.5,773.5 C 1737.48,772.58 1739.81,774.58 1739.5,779.5C 1738.92,783.333 1737.75,787 1736,790.5C 1730.11,795.302 1727.28,793.802 1727.5,786C 1727.38,781.082 1729.05,776.915 1732.5,773.5 Z"/></g>
<g><path style="opacity:1" fill="#e6d8cd" d="M 1424.5,775.5 C 1429.5,774.235 1432.17,776.068 1432.5,781C 1432.13,784.763 1430.97,788.263 1429,791.5C 1422.85,795.035 1420.02,793.201 1420.5,786C 1420.04,781.762 1421.37,778.262 1424.5,775.5 Z"/></g>
<g><path style="opacity:1" fill="#e3d7cf" d="M 1466.5,785.5 C 1468.86,785.337 1471.19,785.503 1473.5,786C 1476.25,789.012 1475.92,791.679 1472.5,794C 1470.5,794.667 1468.5,794.667 1466.5,794C 1465.21,791.168 1465.21,788.335 1466.5,785.5 Z"/></g>
</svg>
