<?xml version="1.0" encoding="UTF-8"?>
<!DOCTYPE svg PUBLIC "-//W3C//DTD SVG 1.1//EN" "http://www.w3.org/Graphics/SVG/1.1/DTD/svg11.dtd">
<svg xmlns="http://www.w3.org/2000/svg" version="1.1" width="2560px" height="1440px" style="shape-rendering:geometricPrecision; text-rendering:geometricPrecision; image-rendering:optimizeQuality; fill-rule:evenodd; clip-rule:evenodd" xmlns:xlink="http://www.w3.org/1999/xlink">
<g><path style="opacity:1" fill="#e7d8cc" d="M -0.5,-0.5 C 852.833,-0.5 1706.17,-0.5 2559.5,-0.5C 2559.5,479.5 2559.5,959.5 2559.5,1439.5C 1706.17,1439.5 852.833,1439.5 -0.5,1439.5C -0.5,959.5 -0.5,479.5 -0.5,-0.5 Z"/></g>
<g><path style="opacity:1" fill="#0b0b0a" d="M 854.5,601.5 C 855.873,601.343 857.207,601.51 858.5,602C 868,612.167 877.5,622.333 887,632.5C 889.865,635.228 891.365,638.562 891.5,642.5C 887.86,641.85 884.527,640.35 881.5,638C 871.266,628.436 861.766,618.269 853,607.5C 852.252,605.16 852.752,603.16 854.5,601.5 Z"/></g>
<g><path style="opacity:1" fill="#0b0a0a" d="M 1031.5,605.5 C 1036.55,605.376 1038.38,607.709 1037,612.5C 1027.55,624.95 1017.05,636.45 1005.5,647C 1001.91,647.611 1000.75,646.111 1002,642.5C 1011.73,629.955 1021.56,617.622 1031.5,605.5 Z"/></g>
<g><path style="opacity:1" fill="#0b0b0a" d="M 850.5,643.5 C 855.471,644.483 860.137,646.316 864.5,649C 865.948,653.46 864.281,655.126 859.5,654C 855.726,652.698 852.559,650.531 850,647.5C 849.421,646.072 849.588,644.738 850.5,643.5 Z"/></g>
<g><path style="opacity:1" fill="#070707" d="M 1020.5,754.5 C 1004.99,754.83 989.658,754.496 974.5,753.5C 963.915,754.476 953.248,754.809 942.5,754.5C 943.126,747.416 942.459,740.75 940.5,734.5C 941.167,733.833 941.833,733.167 942.5,732.5C 941.564,728.265 941.231,723.931 941.5,719.5C 939.5,719.5 937.5,719.5 935.5,719.5C 934.791,718.596 933.791,718.263 932.5,718.5C 932.19,721.713 932.523,724.713 933.5,727.5C 933.5,728.167 933.5,728.833 933.5,729.5C 935.075,731.114 935.741,733.114 935.5,735.5C 935.5,741.833 935.5,748.167 935.5,754.5C 928.167,754.5 920.833,754.5 913.5,754.5C 911.539,752.037 909.372,749.703 907,747.5C 906.333,748.167 906.333,748.833 907,749.5C 908.707,751.037 910.207,752.704 911.5,754.5C 896.167,754.5 880.833,754.5 865.5,754.5C 850.04,709.379 862.04,673.546 901.5,647C 905.393,644.983 909.393,643.483 913.5,642.5C 913.185,637.832 913.851,633.332 915.5,629C 911.263,619.345 908.597,609.179 907.5,598.5C 909.144,598.286 910.644,598.62 912,599.5C 915.339,608.016 918.172,616.682 920.5,625.5C 928.177,621.334 936.51,619.334 945.5,619.5C 945.236,604.14 945.736,588.806 947,573.5C 948.733,571.398 950.733,571.065 953,572.5C 953.139,588.164 952.972,603.831 952.5,619.5C 961.945,620.092 970.278,623.425 977.5,629.5C 978.491,623.362 979.991,617.362 982,611.5C 983.733,609.398 985.733,609.065 988,610.5C 986.809,618.24 984.309,625.573 980.5,632.5C 984.388,636.903 985.888,641.903 985,647.5C 1016.01,666.853 1030.01,694.853 1027,731.5C 1025.6,739.42 1023.44,747.086 1020.5,754.5 Z"/></g>
<g><path style="opacity:1" fill="#8f8e8e" d="M 919.5,628.5 C 920.002,626.915 921.002,626.415 922.5,627C 921.756,628.039 920.756,628.539 919.5,628.5 Z"/></g>
<g><path style="opacity:1" fill="#f5f5f5" d="M 919.5,628.5 C 919.5,629.833 919.5,631.167 919.5,632.5C 921.144,632.714 922.644,632.38 924,631.5C 924.45,629.481 925.283,627.648 926.5,626C 925.833,625.667 925.167,625.333 924.5,625C 928.507,624.942 932.341,623.775 936,621.5C 937.07,621.528 937.903,621.861 938.5,622.5C 940.745,621.365 943.078,620.865 945.5,621C 942.241,622.211 939.408,624.044 937,626.5C 936.692,630.367 938.359,631.367 942,629.5C 942.898,624.767 945.731,621.767 950.5,620.5C 964.688,621.336 975.521,627.669 983,639.5C 983.638,642.536 983.472,645.536 982.5,648.5C 982.048,650.312 980.882,651.312 979,651.5C 975.283,649.982 971.449,648.982 967.5,648.5C 967.5,649.833 967.5,651.167 967.5,652.5C 971.441,653.757 975.441,654.924 979.5,656C 980.591,658.064 980.758,660.231 980,662.5C 975.862,659.953 971.362,658.286 966.5,657.5C 966.286,659.144 966.62,660.644 967.5,662C 971.243,663.136 974.91,664.47 978.5,666C 981.119,668.257 981.119,670.423 978.5,672.5C 974.73,669.464 970.397,667.797 965.5,667.5C 965.238,668.978 965.571,670.311 966.5,671.5C 970.069,672.967 973.736,674.134 977.5,675C 979.978,676.938 980.145,679.105 978,681.5C 973.862,678.953 969.362,677.286 964.5,676.5C 964.286,678.144 964.62,679.644 965.5,681C 969.508,682.113 973.341,683.613 977,685.5C 977.808,687.579 977.641,689.579 976.5,691.5C 975.713,690.758 975.047,689.925 974.5,689C 971.08,688.417 967.913,687.25 965,685.5C 962.5,686.333 962,687.833 963.5,690C 967.616,691.205 971.616,692.705 975.5,694.5C 978.578,708.596 972.911,716.43 958.5,718C 942.745,720.059 928.079,717.059 914.5,709C 906.297,702.21 905.297,694.543 911.5,686C 915.086,684.892 918.753,684.392 922.5,684.5C 922.5,683.167 922.5,681.833 922.5,680.5C 919.167,680.5 915.833,680.5 912.5,680.5C 912.288,684.315 911.622,684.315 910.5,680.5C 910.529,678.971 911.196,677.804 912.5,677C 915.753,675.964 919.086,675.297 922.5,675C 924.118,672.2 923.285,670.7 920,670.5C 917.142,670.67 914.642,671.67 912.5,673.5C 911.09,671.051 911.424,668.884 913.5,667C 917.17,666.452 920.837,665.952 924.5,665.5C 924.5,664.167 924.5,662.833 924.5,661.5C 920.543,661.008 916.877,661.675 913.5,663.5C 912.422,661.525 912.755,659.692 914.5,658C 918.046,656.826 921.713,656.16 925.5,656C 927.166,652.869 926.166,651.369 922.5,651.5C 919.613,651.627 917.113,652.627 915,654.5C 914.203,648.307 917.036,645.807 923.5,647C 928.899,644.604 928.566,643.104 922.5,642.5C 914.649,644.121 912.482,641.121 916,633.5C 916.697,631.416 917.864,629.749 919.5,628.5 Z"/></g>
<g><path style="opacity:1" fill="#0e0e0e" d="M 934.5,640.5 C 938.846,640.334 943.179,640.501 947.5,641C 951.773,642.535 956.106,643.869 960.5,645C 962,647.167 961.5,648.667 959,649.5C 954.757,648.197 950.59,646.697 946.5,645C 943.131,644.337 939.797,644.504 936.5,645.5C 933.49,644.806 932.823,643.139 934.5,640.5 Z"/></g>
<g><path style="opacity:1" fill="#131313" d="M 938.5,622.5 C 937.167,623.933 935.667,625.267 934,626.5C 934.047,631.136 932.047,632.469 928,630.5C 927.289,628.633 927.789,627.133 929.5,626C 932.072,623.713 935.072,622.547 938.5,622.5 Z"/></g>
<g><path style="opacity:1" fill="#fe83ac" d="M 1180.5,645.5 C 1182.5,645.5 1184.5,645.5 1186.5,645.5C 1186.33,651.842 1186.5,658.175 1187,664.5C 1191.54,658.593 1195.7,652.426 1199.5,646C 1201.81,645.503 1204.14,645.337 1206.5,645.5C 1206.5,656.167 1206.5,666.833 1206.5,677.5C 1204.17,677.5 1201.83,677.5 1199.5,677.5C 1199.67,671.158 1199.5,664.825 1199,658.5C 1194.96,664.753 1190.79,670.92 1186.5,677C 1184.53,677.495 1182.53,677.662 1180.5,677.5C 1180.5,666.833 1180.5,656.167 1180.5,645.5 Z"/></g>
<g><path style="opacity:1" fill="#121212" d="M 934.5,649.5 C 938.182,649.335 941.848,649.501 945.5,650C 950.429,651.81 955.429,653.31 960.5,654.5C 960.5,655.833 960.5,657.167 960.5,658.5C 955.673,658.059 951.007,656.893 946.5,655C 941.845,654.501 937.179,654.334 932.5,654.5C 932.365,652.446 933.032,650.779 934.5,649.5 Z"/></g>
<g><path style="opacity:1" fill="#fe84ac" d="M 1221.5,652.5 C 1225.55,652.395 1229.55,652.728 1233.5,653.5C 1233.53,655.582 1232.86,657.416 1231.5,659C 1221.37,657.499 1218.7,661.499 1223.5,671C 1226.53,671.66 1229.37,671.16 1232,669.5C 1232.5,671.81 1232.66,674.143 1232.5,676.5C 1218.7,679.204 1212.87,673.537 1215,659.5C 1216.36,656.314 1218.52,653.981 1221.5,652.5 Z"/></g>
<g><path style="opacity:1" fill="#fe85ac" d="M 1237.5,652.5 C 1244.5,652.5 1251.5,652.5 1258.5,652.5C 1258.5,654.5 1258.5,656.5 1258.5,658.5C 1256.17,658.5 1253.83,658.5 1251.5,658.5C 1251.5,664.833 1251.5,671.167 1251.5,677.5C 1249.17,677.5 1246.83,677.5 1244.5,677.5C 1244.5,671.167 1244.5,664.833 1244.5,658.5C 1242.17,658.5 1239.83,658.5 1237.5,658.5C 1237.5,656.5 1237.5,654.5 1237.5,652.5 Z"/></g>
<g><path style="opacity:1" fill="#fe83ac" d="M 1269.5,652.5 C 1282.99,651.165 1288.16,657.165 1285,670.5C 1281.96,676.603 1277.13,678.769 1270.5,677C 1268.38,675.878 1266.54,674.378 1265,672.5C 1261.77,664.493 1263.27,657.827 1269.5,652.5 Z"/></g>
<g><path style="opacity:1" fill="#fe84ac" d="M 1293.5,652.5 C 1298.69,652.886 1304.03,653.053 1309.5,653C 1312,654.167 1313.83,656 1315,658.5C 1316.09,664.097 1315.42,669.43 1313,674.5C 1309.53,677.384 1305.69,678.051 1301.5,676.5C 1300.51,679.768 1300.18,683.102 1300.5,686.5C 1298.17,686.5 1295.83,686.5 1293.5,686.5C 1293.5,675.167 1293.5,663.833 1293.5,652.5 Z"/></g>
<g><path style="opacity:1" fill="#fe84ac" d="M 1323.5,652.5 C 1325.83,652.5 1328.17,652.5 1330.5,652.5C 1330.33,656.514 1330.5,660.514 1331,664.5C 1333.62,660.752 1336.12,656.919 1338.5,653C 1340.81,652.503 1343.14,652.337 1345.5,652.5C 1345.5,660.833 1345.5,669.167 1345.5,677.5C 1343.5,677.5 1341.5,677.5 1339.5,677.5C 1339.67,672.821 1339.5,668.155 1339,663.5C 1336.04,667.916 1333.21,672.416 1330.5,677C 1328.19,677.497 1325.86,677.663 1323.5,677.5C 1323.5,669.167 1323.5,660.833 1323.5,652.5 Z"/></g>
<g><path style="opacity:1" fill="#fe84ac" d="M 1354.5,652.5 C 1356.83,652.5 1359.17,652.5 1361.5,652.5C 1361.33,656.514 1361.5,660.514 1362,664.5C 1364.62,660.752 1367.12,656.919 1369.5,653C 1371.81,652.503 1374.14,652.337 1376.5,652.5C 1376.5,660.833 1376.5,669.167 1376.5,677.5C 1374.5,677.5 1372.5,677.5 1370.5,677.5C 1370.67,672.821 1370.5,668.155 1370,663.5C 1367.04,667.916 1364.21,672.416 1361.5,677C 1359.19,677.497 1356.86,677.663 1354.5,677.5C 1354.5,669.167 1354.5,660.833 1354.5,652.5 Z"/></g>
<g><path style="opacity:1" fill="#fe84ac" d="M 1406.5,652.5 C 1410.55,652.395 1414.55,652.728 1418.5,653.5C 1418.53,655.582 1417.86,657.416 1416.5,659C 1406.37,657.499 1403.7,661.499 1408.5,671C 1411.53,671.66 1414.37,671.16 1417,669.5C 1417.5,671.81 1417.66,674.143 1417.5,676.5C 1403.7,679.204 1397.87,673.537 1400,659.5C 1401.36,656.314 1403.52,653.981 1406.5,652.5 Z"/></g>
<g><path style="opacity:1" fill="#fe85ac" d="M 1444.5,652.5 C 1449.5,652.5 1454.5,652.5 1459.5,652.5C 1459.5,658.5 1459.5,664.5 1459.5,670.5C 1460.5,670.5 1461.5,670.5 1462.5,670.5C 1462.5,675.167 1462.5,679.833 1462.5,684.5C 1460.17,684.5 1457.83,684.5 1455.5,684.5C 1455.5,682.167 1455.5,679.833 1455.5,677.5C 1451.83,677.5 1448.17,677.5 1444.5,677.5C 1444.5,679.833 1444.5,682.167 1444.5,684.5C 1442.17,684.5 1439.83,684.5 1437.5,684.5C 1437.5,679.833 1437.5,675.167 1437.5,670.5C 1439.91,670.863 1441.41,669.863 1442,667.5C 1444.03,662.705 1444.87,657.705 1444.5,652.5 Z"/></g>
<g><path style="opacity:1" fill="#fe84ac" d="M 1465.5,652.5 C 1470.17,652.5 1474.83,652.5 1479.5,652.5C 1479.5,655.5 1479.5,658.5 1479.5,661.5C 1489.15,659.337 1493.65,663.003 1493,672.5C 1491.89,674.815 1490.06,676.315 1487.5,677C 1482.51,677.499 1477.51,677.666 1472.5,677.5C 1472.5,671.167 1472.5,664.833 1472.5,658.5C 1470.17,658.5 1467.83,658.5 1465.5,658.5C 1465.5,656.5 1465.5,654.5 1465.5,652.5 Z"/></g>
<g><path style="opacity:1" fill="#fd85ac" d="M 1498.5,652.5 C 1501.25,652.187 1503.91,652.52 1506.5,653.5C 1507.6,655.389 1508.94,657.055 1510.5,658.5C 1511.83,656.833 1513.17,655.167 1514.5,653.5C 1517.11,652.348 1519.77,652.182 1522.5,653C 1519.71,656.746 1517.04,660.579 1514.5,664.5C 1517.13,668.931 1520.13,673.098 1523.5,677C 1520.83,677.667 1518.17,677.667 1515.5,677C 1514.02,674.691 1512.36,672.524 1510.5,670.5C 1508.84,672.46 1507.18,674.46 1505.5,676.5C 1502.83,677.833 1500.17,677.833 1497.5,676.5C 1500.5,672.5 1503.5,668.5 1506.5,664.5C 1503.39,660.736 1500.72,656.736 1498.5,652.5 Z"/></g>
<g><path style="opacity:1" fill="#fe84ac" d="M 1543.5,652.5 C 1545.83,652.5 1548.17,652.5 1550.5,652.5C 1550.5,655.5 1550.5,658.5 1550.5,661.5C 1553.17,661.5 1555.83,661.5 1558.5,661.5C 1558.5,658.5 1558.5,655.5 1558.5,652.5C 1560.83,652.5 1563.17,652.5 1565.5,652.5C 1565.5,660.833 1565.5,669.167 1565.5,677.5C 1563.17,677.5 1560.83,677.5 1558.5,677.5C 1558.5,674.167 1558.5,670.833 1558.5,667.5C 1555.83,667.5 1553.17,667.5 1550.5,667.5C 1550.5,670.833 1550.5,674.167 1550.5,677.5C 1548.17,677.5 1545.83,677.5 1543.5,677.5C 1543.5,669.167 1543.5,660.833 1543.5,652.5 Z"/></g>
<g><path style="opacity:1" fill="#fe83ab" d="M 1577.5,652.5 C 1581.18,652.335 1584.85,652.501 1588.5,653C 1590,653.833 1591.17,655 1592,656.5C 1592.5,663.158 1592.67,669.825 1592.5,676.5C 1590.41,676.682 1588.41,676.348 1586.5,675.5C 1576.51,679.679 1572.01,676.346 1573,665.5C 1576.91,662.356 1581.41,660.69 1586.5,660.5C 1586.29,659.914 1585.96,659.414 1585.5,659C 1582.43,658.544 1579.43,658.544 1576.5,659C 1573.64,656.246 1573.98,654.08 1577.5,652.5 Z"/></g>
<g><path style="opacity:1" fill="#f3acbc" d="M 1617.5,652.5 C 1617.5,660.5 1617.5,668.5 1617.5,676.5C 1619.17,676.5 1620.83,676.5 1622.5,676.5C 1622.33,673.15 1622.5,669.817 1623,666.5C 1624.04,667.244 1624.54,668.244 1624.5,669.5C 1623.53,671.948 1623.19,674.615 1623.5,677.5C 1621.17,677.5 1618.83,677.5 1616.5,677.5C 1616.17,668.983 1616.51,660.65 1617.5,652.5 Z"/></g>
<g><path style="opacity:1" fill="#fe81ab" d="M 1617.5,652.5 C 1619.92,652.192 1622.26,652.526 1624.5,653.5C 1626.33,657.833 1628.17,662.167 1630,666.5C 1631.67,662.167 1633.33,657.833 1635,653.5C 1637.38,652.565 1639.88,652.232 1642.5,652.5C 1642.5,660.5 1642.5,668.5 1642.5,676.5C 1640.5,676.5 1638.5,676.5 1636.5,676.5C 1637.06,666.436 1635.89,666.102 1633,675.5C 1631,676.833 1629,676.833 1627,675.5C 1626.06,673.512 1625.23,671.512 1624.5,669.5C 1624.54,668.244 1624.04,667.244 1623,666.5C 1622.5,669.817 1622.33,673.15 1622.5,676.5C 1620.83,676.5 1619.17,676.5 1617.5,676.5C 1617.5,668.5 1617.5,660.5 1617.5,652.5 Z"/></g>
<g><path style="opacity:1" fill="#f3acbc" d="M 1642.5,652.5 C 1643.49,660.65 1643.83,668.983 1643.5,677.5C 1640.94,677.802 1638.61,677.468 1636.5,676.5C 1638.5,676.5 1640.5,676.5 1642.5,676.5C 1642.5,668.5 1642.5,660.5 1642.5,652.5 Z"/></g>
<g><path style="opacity:1" fill="#fe83ac" d="M 1656.5,652.5 C 1670.69,651.52 1675.86,657.853 1672,671.5C 1665.38,679.489 1658.71,679.489 1652,671.5C 1649.05,664.065 1650.55,657.731 1656.5,652.5 Z"/></g>
<g><path style="opacity:1" fill="#fe83ac" d="M 1681.5,652.5 C 1686.69,652.886 1692.03,653.053 1697.5,653C 1700.38,654.251 1702.21,656.417 1703,659.5C 1703.79,663.926 1703.46,668.259 1702,672.5C 1698.55,676.875 1694.21,678.208 1689,676.5C 1688.5,679.817 1688.33,683.15 1688.5,686.5C 1686.17,686.5 1683.83,686.5 1681.5,686.5C 1681.5,675.167 1681.5,663.833 1681.5,652.5 Z"/></g>
<g><path style="opacity:1" fill="#fe84ac" d="M 1716.5,652.5 C 1727.78,651.114 1732.78,656.114 1731.5,667.5C 1726.79,667.173 1722.12,667.507 1717.5,668.5C 1718.41,670.743 1720.08,671.743 1722.5,671.5C 1724.95,671.239 1727.28,670.572 1729.5,669.5C 1730.77,671.695 1730.77,673.861 1729.5,676C 1714.69,679.531 1708.53,673.698 1711,658.5C 1712.36,655.977 1714.19,653.977 1716.5,652.5 Z"/></g>
<g><path style="opacity:1" fill="#0f0e0d" d="M 1042.5,654.5 C 1043.83,654.5 1045.17,654.5 1046.5,654.5C 1046.71,656.144 1046.38,657.644 1045.5,659C 1040.07,662.05 1034.4,664.55 1028.5,666.5C 1025.92,665.112 1025.92,663.612 1028.5,662C 1033.39,659.726 1038.05,657.226 1042.5,654.5 Z"/></g>
<g><path style="opacity:1" fill="#b2b2b2" d="M 905.5,656.5 C 907.331,654.251 909.664,653.085 912.5,653C 910.423,654.705 908.09,655.872 905.5,656.5 Z"/></g>
<g><path style="opacity:1" fill="#b1b1b1" d="M 905.5,656.5 C 905.027,657.906 904.027,658.573 902.5,658.5C 902.973,657.094 903.973,656.427 905.5,656.5 Z"/></g>
<g><path style="opacity:1" fill="#acacac" d="M 986.5,660.5 C 984.804,660.315 983.471,659.481 982.5,658C 984.412,657.721 985.746,658.554 986.5,660.5 Z"/></g>
<g><path style="opacity:1" fill="#e8d5cb" d="M 1271.5,658.5 C 1278.51,658.129 1281.01,661.462 1279,668.5C 1276.63,671.932 1273.97,672.265 1271,669.5C 1270.24,665.745 1270.41,662.078 1271.5,658.5 Z"/></g>
<g><path style="opacity:1" fill="#e9d5cb" d="M 1302.5,658.5 C 1307.28,657.614 1309.62,659.614 1309.5,664.5C 1309.53,668.134 1307.86,670.467 1304.5,671.5C 1302.57,671.41 1301.41,670.41 1301,668.5C 1300.04,664.851 1300.54,661.518 1302.5,658.5 Z"/></g>
<g><path style="opacity:1" fill="#ead1c9" d="M 1450.5,658.5 C 1452.43,662.373 1453.1,666.706 1452.5,671.5C 1450.83,671.5 1449.17,671.5 1447.5,671.5C 1448.81,667.224 1449.81,662.891 1450.5,658.5 Z"/></g>
<g><path style="opacity:1" fill="#e8d6cb" d="M 1659.5,658.5 C 1662.04,658.104 1664.21,658.771 1666,660.5C 1666.93,664.244 1666.43,667.744 1664.5,671C 1661.47,672.14 1659.31,671.306 1658,668.5C 1657.04,664.851 1657.54,661.518 1659.5,658.5 Z"/></g>
<g><path style="opacity:1" fill="#e8d7cc" d="M 1689.5,658.5 C 1692.04,658.104 1694.21,658.771 1696,660.5C 1696.93,664.244 1696.43,667.744 1694.5,671C 1692.3,671.825 1690.47,671.325 1689,669.5C 1688.24,665.745 1688.41,662.078 1689.5,658.5 Z"/></g>
<g><path style="opacity:1" fill="#a5a5a5" d="M 902.5,658.5 C 902.027,659.906 901.027,660.573 899.5,660.5C 899.973,659.094 900.973,658.427 902.5,658.5 Z"/></g>
<g><path style="opacity:1" fill="#161616" d="M 936.5,658.5 C 939.187,658.336 941.854,658.503 944.5,659C 948.916,661.251 953.583,662.917 958.5,664C 960,666.167 959.5,667.667 957,668.5C 951.298,666.321 945.465,664.654 939.5,663.5C 936.824,663.837 934.157,664.17 931.5,664.5C 931.5,662.833 931.5,661.167 931.5,659.5C 933.415,659.784 935.081,659.451 936.5,658.5 Z"/></g>
<g><path style="opacity:1" fill="#a5a5a5" d="M 986.5,660.5 C 988.404,660.738 989.738,661.738 990.5,663.5C 988.596,663.262 987.262,662.262 986.5,660.5 Z"/></g>
<g><path style="opacity:1" fill="#efbcc1" d="M 1718.5,658.5 C 1720.98,658.051 1722.98,658.717 1724.5,660.5C 1722.17,661.833 1719.83,661.833 1717.5,660.5C 1717.86,659.817 1718.2,659.15 1718.5,658.5 Z"/></g>
<g><path style="opacity:1" fill="#7c7c7c" d="M 899.5,660.5 C 897.798,663.395 895.464,665.228 892.5,666C 894.441,663.546 896.775,661.713 899.5,660.5 Z"/></g>
<g><path style="opacity:1" fill="#a9a9a9" d="M 906.5,664.5 C 907.665,662.584 909.332,661.751 911.5,662C 910.09,663.372 908.423,664.205 906.5,664.5 Z"/></g>
<g><path style="opacity:1" fill="#8b8b8b" d="M 990.5,663.5 C 994.304,665.131 996.804,667.798 998,671.5C 995.295,668.964 992.795,666.297 990.5,663.5 Z"/></g>
<g><path style="opacity:1" fill="#a2a2a2" d="M 906.5,664.5 C 905.738,666.262 904.404,667.262 902.5,667.5C 903.262,665.738 904.596,664.738 906.5,664.5 Z"/></g>
<g><path style="opacity:1" fill="#ebcfc9" d="M 1580.5,666.5 C 1582.5,666.5 1584.5,666.5 1586.5,666.5C 1585.91,670.316 1583.58,671.983 1579.5,671.5C 1579.37,669.708 1579.7,668.042 1580.5,666.5 Z"/></g>
<g><path style="opacity:1" fill="#898989" d="M 980.5,664.5 C 983.166,665.842 985.499,667.675 987.5,670C 985.369,669.602 983.369,668.602 981.5,667C 980.748,666.329 980.414,665.496 980.5,664.5 Z"/></g>
<g><path style="opacity:1" fill="#ead1ca" d="M 1479.5,667.5 C 1482.17,667.5 1484.83,667.5 1487.5,667.5C 1487.67,668.822 1487.34,669.989 1486.5,671C 1484.19,671.497 1481.86,671.663 1479.5,671.5C 1479.5,670.167 1479.5,668.833 1479.5,667.5 Z"/></g>
<g><path style="opacity:1" fill="#0e0e0e" d="M 931.5,668.5 C 941.382,667.8 950.382,670.133 958.5,675.5C 958,676.881 957,677.547 955.5,677.5C 950.802,676.101 946.136,674.601 941.5,673C 937.806,672.722 934.139,672.722 930.5,673C 929.257,671.184 929.59,669.684 931.5,668.5 Z"/></g>
<g><path style="opacity:1" fill="#888888" d="M 905.5,674.5 C 906.562,672.243 908.228,671.077 910.5,671C 909.211,672.802 907.544,673.969 905.5,674.5 Z"/></g>
<g><path style="opacity:1" fill="#6c6c6c" d="M 902.5,667.5 C 898.537,671.964 894.37,676.298 890,680.5C 889.333,679.833 889.333,679.167 890,678.5C 893.761,674.23 897.928,670.563 902.5,667.5 Z"/></g>
<g><path style="opacity:1" fill="#848484" d="M 979.5,674.5 C 979.897,673.475 980.563,673.308 981.5,674C 984.922,676.719 987.422,679.886 989,683.5C 985.964,680.296 982.797,677.296 979.5,674.5 Z"/></g>
<g><path style="opacity:1" fill="#7e7e7e" d="M 905.5,674.5 C 903.205,677.297 900.705,679.964 898,682.5C 899.196,678.798 901.696,676.131 905.5,674.5 Z"/></g>
<g><path style="opacity:1" fill="#101010" d="M 933.5,677.5 C 936.187,677.336 938.854,677.503 941.5,678C 946.304,680.213 951.304,681.713 956.5,682.5C 956.884,684.665 956.217,686.332 954.5,687.5C 946.331,683.292 937.664,681.625 928.5,682.5C 928.351,681.448 928.517,680.448 929,679.5C 930.622,678.901 932.122,678.234 933.5,677.5 Z"/></g>
<g><path style="opacity:1" fill="#151515" d="M 930.5,689.5 C 931.833,689.5 933.167,689.5 934.5,689.5C 934.335,692.85 934.502,696.183 935,699.5C 938.201,703.036 941.701,706.203 945.5,709C 939.389,708.189 934.222,705.356 930,700.5C 927.866,696.647 928.033,692.98 930.5,689.5 Z"/></g>
<g><path style="opacity:1" fill="#171717" d="M 920.5,691.5 C 922.167,691.5 923.833,691.5 925.5,691.5C 925.335,694.518 925.502,697.518 926,700.5C 928.333,704.167 931.333,707.167 935,709.5C 935.591,710.483 935.257,711.15 934,711.5C 929.335,708.999 925.002,705.999 921,702.5C 919.253,698.875 919.086,695.208 920.5,691.5 Z"/></g>
<g><path style="opacity:1" fill="#0f0f0f" d="M 911.5,692.5 C 912.833,692.5 914.167,692.5 915.5,692.5C 915.336,695.187 915.503,697.854 916,700.5C 918.667,704.5 922,707.833 926,710.5C 926.591,711.483 926.257,712.15 925,712.5C 920.335,709.999 916.002,706.999 912,703.5C 910.253,699.875 910.086,696.208 911.5,692.5 Z"/></g>
<g><path style="opacity:1" fill="#f4f4f4" d="M 935.5,719.5 C 937.5,719.5 939.5,719.5 941.5,719.5C 941.231,723.931 941.564,728.265 942.5,732.5C 940.836,731.051 940.002,729.051 940,726.5C 939.311,725.643 938.478,724.977 937.5,724.5C 935.459,725.707 934.126,727.374 933.5,729.5C 933.5,728.833 933.5,728.167 933.5,727.5C 932.964,724.302 933.631,721.635 935.5,719.5 Z"/></g>
<g><path style="opacity:1" fill="#828282" d="M 935.5,719.5 C 933.631,721.635 932.964,724.302 933.5,727.5C 932.523,724.713 932.19,721.713 932.5,718.5C 933.791,718.263 934.791,718.596 935.5,719.5 Z"/></g>
<g><path style="opacity:1" fill="#23c6eb" d="M 1211.5,719.5 C 1226.11,719.435 1240.11,722.268 1253.5,728C 1278.09,742.82 1304.42,747.153 1332.5,741C 1346.72,735.893 1360.72,730.226 1374.5,724C 1395.5,718.033 1416.5,718.033 1437.5,724C 1451.43,729.865 1465.43,735.532 1479.5,741C 1499.11,745.066 1518.44,744.066 1537.5,738C 1550.1,731.69 1563.1,726.356 1576.5,722C 1595.33,718.254 1614,718.921 1632.5,724C 1646.51,729.673 1660.51,735.339 1674.5,741C 1682.4,742.819 1690.4,743.652 1698.5,743.5C 1698.5,747.167 1698.5,750.833 1698.5,754.5C 1683.84,755.668 1669.84,753.168 1656.5,747C 1631.53,732.283 1604.86,727.95 1576.5,734C 1563.6,738.782 1550.94,744.115 1538.5,750C 1516.26,756.87 1493.92,757.203 1471.5,751C 1459.03,745.285 1446.36,739.952 1433.5,735C 1416.25,730.75 1398.92,730.417 1381.5,734C 1366.6,740.283 1351.6,746.283 1336.5,752C 1317.48,756.542 1298.48,756.542 1279.5,752C 1265.72,746.609 1252.05,740.943 1238.5,735C 1229.65,732.597 1220.65,731.43 1211.5,731.5C 1211.5,727.5 1211.5,723.5 1211.5,719.5 Z"/></g>
<g><path style="opacity:1" fill="#ececec" d="M 940.5,734.5 C 942.459,740.75 943.126,747.416 942.5,754.5C 940.167,754.5 937.833,754.5 935.5,754.5C 935.5,748.167 935.5,741.833 935.5,735.5C 936.166,732.642 936.833,729.642 937.5,726.5C 938.08,729.447 939.08,732.114 940.5,734.5 Z"/></g>
<g><path style="opacity:1" fill="#505050" d="M 942.5,732.5 C 941.833,733.167 941.167,733.833 940.5,734.5C 939.08,732.114 938.08,729.447 937.5,726.5C 936.833,729.642 936.166,732.642 935.5,735.5C 935.741,733.114 935.075,731.114 933.5,729.5C 934.126,727.374 935.459,725.707 937.5,724.5C 938.478,724.977 939.311,725.643 940,726.5C 940.002,729.051 940.836,731.051 942.5,732.5 Z"/></g>
<g><path style="opacity:1" fill="#c4c4c4" d="M 947.5,723.5 C 950.001,723.511 950.168,724.178 948,725.5C 947.719,728.097 947.552,730.43 947.5,732.5C 944.845,729.466 944.845,726.466 947.5,723.5 Z"/></g>
<g><path style="opacity:1" fill="#797979" d="M 913.5,754.5 C 912.833,754.5 912.167,754.5 911.5,754.5C 910.207,752.704 908.707,751.037 907,749.5C 906.333,748.833 906.333,748.167 907,747.5C 909.372,749.703 911.539,752.037 913.5,754.5 Z"/></g>
<g><path style="opacity:1" fill="#6a6a6a" d="M 974.5,753.5 C 975.398,751.095 976.898,749.095 979,747.5C 979.667,748.167 979.667,748.833 979,749.5C 977.693,751.192 976.193,752.525 974.5,753.5 Z"/></g>
<g><path style="opacity:1" fill="#fddc58" d="M 974.5,753.5 C 989.658,754.496 1004.99,754.83 1020.5,754.5C 1061.23,754.017 1101.89,754.517 1142.5,756C 1147.76,758.256 1151.26,762.09 1153,767.5C 1153.67,782.167 1153.67,796.833 1153,811.5C 1150.83,817.667 1146.67,821.833 1140.5,824C 1113.75,824.017 1087.08,824.684 1060.5,826C 1056.61,828.222 1053.78,831.388 1052,835.5C 1051.9,846.225 1051.24,856.891 1050,867.5C 1048.04,873.731 1043.87,877.564 1037.5,879C 978.167,879.667 918.833,879.667 859.5,879C 853.359,876.859 849.193,872.693 847,866.5C 846.667,856.833 846.333,847.167 846,837.5C 844.167,831 840,826.833 833.5,825C 808.167,824.667 782.833,824.333 757.5,824C 750.667,822.5 746.5,818.333 745,811.5C 744.333,796.167 744.333,780.833 745,765.5C 747.247,760.288 751.08,756.788 756.5,755C 792.832,754.5 829.165,754.333 865.5,754.5C 880.833,754.5 896.167,754.5 911.5,754.5C 912.167,754.5 912.833,754.5 913.5,754.5C 920.833,754.5 928.167,754.5 935.5,754.5C 937.833,754.5 940.167,754.5 942.5,754.5C 953.248,754.809 963.915,754.476 974.5,753.5 Z"/></g>
<g><path style="opacity:1" fill="#060501" d="M 763.5,775.5 C 769.621,775.09 775.621,775.59 781.5,777C 784.325,781.068 783.992,784.901 780.5,788.5C 784.79,791.657 785.624,795.657 783,800.5C 781.581,801.46 780.081,802.293 778.5,803C 773.511,803.499 768.511,803.666 763.5,803.5C 763.5,794.167 763.5,784.833 763.5,775.5 Z"/></g>
<g><path style="opacity:1" fill="#e9ca51" d="M 769.5,779.5 C 771.527,779.338 773.527,779.505 775.5,780C 777.698,781.67 778.032,783.67 776.5,786C 774.19,786.497 771.857,786.663 769.5,786.5C 769.5,784.167 769.5,781.833 769.5,779.5 Z"/></g>
<g><path style="opacity:1" fill="#0f0c05" d="M 899.5,781.5 C 911.679,781.172 916.179,786.838 913,798.5C 912.167,800.667 910.667,802.167 908.5,803C 896.554,804.717 891.721,799.551 894,787.5C 895.36,784.977 897.193,782.977 899.5,781.5 Z"/></g>
<g><path style="opacity:1" fill="#110e06" d="M 998.5,790.5 C 1000.83,790.5 1003.17,790.5 1005.5,790.5C 1005.74,789.209 1005.4,788.209 1004.5,787.5C 1004.39,786.883 1004.06,786.383 1003.5,786C 1000.56,786.011 997.73,785.845 995,785.5C 994.251,784.365 994.417,783.365 995.5,782.5C 1000.75,780.706 1005.58,781.372 1010,784.5C 1011.42,790.715 1011.92,797.048 1011.5,803.5C 1009.18,803.771 1007.18,803.104 1005.5,801.5C 1002.04,803.391 998.372,803.891 994.5,803C 989.646,796.739 990.979,792.572 998.5,790.5 Z"/></g>
<g><path style="opacity:1" fill="#373013" d="M 1107.5,782.5 C 1107.5,782.167 1107.5,781.833 1107.5,781.5C 1114.17,781.5 1120.83,781.5 1127.5,781.5C 1127.5,783.167 1127.5,784.833 1127.5,786.5C 1125.17,786.5 1122.83,786.5 1120.5,786.5C 1122.26,785.539 1124.26,785.205 1126.5,785.5C 1126.5,784.5 1126.5,783.5 1126.5,782.5C 1120.17,782.5 1113.83,782.5 1107.5,782.5 Z"/></g>
<g><path style="opacity:1" fill="#0c0a03" d="M 794.5,781.5 C 799.5,781.5 804.5,781.5 809.5,781.5C 809.5,787.5 809.5,793.5 809.5,799.5C 810.5,799.5 811.5,799.5 812.5,799.5C 812.5,803.5 812.5,807.5 812.5,811.5C 810.833,811.5 809.167,811.5 807.5,811.5C 807.5,808.833 807.5,806.167 807.5,803.5C 802.5,803.5 797.5,803.5 792.5,803.5C 792.5,806.167 792.5,808.833 792.5,811.5C 790.833,811.5 789.167,811.5 787.5,811.5C 786.757,805.906 787.923,800.906 791,796.5C 792.767,791.624 793.933,786.624 794.5,781.5 Z"/></g>
<g><path style="opacity:1" fill="#0c0a03" d="M 813.5,781.5 C 817.833,781.5 822.167,781.5 826.5,781.5C 826.5,784.5 826.5,787.5 826.5,790.5C 830.637,790.146 834.637,790.646 838.5,792C 841.564,796.658 840.564,800.325 835.5,803C 830.511,803.499 825.511,803.666 820.5,803.5C 820.5,797.833 820.5,792.167 820.5,786.5C 818.167,786.5 815.833,786.5 813.5,786.5C 813.5,784.833 813.5,783.167 813.5,781.5 Z"/></g>
<g><path style="opacity:1" fill="#110e05" d="M 842.5,782.5 C 844.693,781.203 847.027,781.203 849.5,782.5C 850.919,784.336 852.086,786.336 853,788.5C 854.5,786.333 856,784.167 857.5,782C 859.579,781.192 861.579,781.359 863.5,782.5C 861.5,785.833 859.5,789.167 857.5,792.5C 859.461,796.258 861.795,799.758 864.5,803C 862.098,803.814 859.765,803.647 857.5,802.5C 856.243,800.321 854.743,798.321 853,796.5C 851.623,798.754 850.123,800.92 848.5,803C 846.421,803.808 844.421,803.641 842.5,802.5C 844.935,799.405 846.935,796.072 848.5,792.5C 846.993,788.809 844.993,785.476 842.5,782.5 Z"/></g>
<g><path style="opacity:1" fill="#0c0903" d="M 873.5,781.5 C 873.5,784.5 873.5,787.5 873.5,790.5C 876.713,790.81 879.713,790.477 882.5,789.5C 882.5,786.833 882.5,784.167 882.5,781.5C 884.5,781.5 886.5,781.5 888.5,781.5C 888.5,788.833 888.5,796.167 888.5,803.5C 886.5,803.5 884.5,803.5 882.5,803.5C 882.5,800.5 882.5,797.5 882.5,794.5C 879.833,794.5 877.167,794.5 874.5,794.5C 874.5,797.5 874.5,800.5 874.5,803.5C 872.5,803.5 870.5,803.5 868.5,803.5C 868.5,796.167 868.5,788.833 868.5,781.5C 870.167,781.5 871.833,781.5 873.5,781.5 Z"/></g>
<g><path style="opacity:1" fill="#0c0a03" d="M 919.5,781.5 C 925.732,780.939 931.732,781.772 937.5,784C 939.354,787.726 938.354,790.392 934.5,792C 940.994,795.561 940.994,799.228 934.5,803C 929.511,803.499 924.511,803.666 919.5,803.5C 919.5,796.167 919.5,788.833 919.5,781.5 Z"/></g>
<g><path style="opacity:1" fill="#0f0d05" d="M 947.5,781.5 C 952.167,781.5 956.833,781.5 961.5,781.5C 961.5,788.833 961.5,796.167 961.5,803.5C 959.5,803.5 957.5,803.5 955.5,803.5C 955.5,800.833 955.5,798.167 955.5,795.5C 954.448,795.351 953.448,795.517 952.5,796C 950.833,798.333 949.167,800.667 947.5,803C 945.5,803.667 943.5,803.667 941.5,803C 943.363,800.636 945.029,798.136 946.5,795.5C 940.976,790.305 941.309,785.639 947.5,781.5 Z"/></g>
<g><path style="opacity:1" fill="#0c0a03" d="M 968.5,781.5 C 974.732,780.939 980.732,781.772 986.5,784C 988.354,787.726 987.354,790.392 983.5,792C 989.994,795.561 989.994,799.228 983.5,803C 978.511,803.499 973.511,803.666 968.5,803.5C 968.5,796.167 968.5,788.833 968.5,781.5 Z"/></g>
<g><path style="opacity:1" fill="#060501" d="M 1036.5,798.5 C 1038.95,799.473 1041.61,799.806 1044.5,799.5C 1044.5,793.5 1044.5,787.5 1044.5,781.5C 1046.17,781.5 1047.83,781.5 1049.5,781.5C 1049.5,787.5 1049.5,793.5 1049.5,799.5C 1050.5,799.5 1051.5,799.5 1052.5,799.5C 1052.5,803.167 1052.5,806.833 1052.5,810.5C 1051.17,810.5 1049.83,810.5 1048.5,810.5C 1048.8,807.941 1048.47,805.607 1047.5,803.5C 1037.5,803.5 1027.5,803.5 1017.5,803.5C 1017.5,796.167 1017.5,788.833 1017.5,781.5C 1019.5,781.5 1021.5,781.5 1023.5,781.5C 1023.5,787.5 1023.5,793.5 1023.5,799.5C 1025.83,799.5 1028.17,799.5 1030.5,799.5C 1030.5,793.5 1030.5,787.5 1030.5,781.5C 1032.5,781.5 1034.5,781.5 1036.5,781.5C 1036.5,787.167 1036.5,792.833 1036.5,798.5 Z"/></g>
<g><path style="opacity:1" fill="#6c5e25" d="M 1044.5,781.5 C 1044.5,787.5 1044.5,793.5 1044.5,799.5C 1041.61,799.806 1038.95,799.473 1036.5,798.5C 1038.83,798.5 1041.17,798.5 1043.5,798.5C 1043.18,792.642 1043.51,786.975 1044.5,781.5 Z"/></g>
<g><path style="opacity:1" fill="#a18c38" d="M 1049.5,781.5 C 1049.92,787.599 1050.92,793.599 1052.5,799.5C 1051.5,799.5 1050.5,799.5 1049.5,799.5C 1049.5,793.5 1049.5,787.5 1049.5,781.5 Z"/></g>
<g><path style="opacity:1" fill="#0c0903" d="M 1071.5,782.5 C 1073.83,782.5 1076.17,782.5 1078.5,782.5C 1078.5,789.5 1078.5,796.5 1078.5,803.5C 1076.83,803.5 1075.17,803.5 1073.5,803.5C 1073.67,798.821 1073.5,794.155 1073,789.5C 1069.97,793.698 1067.14,798.032 1064.5,802.5C 1061.91,803.48 1059.25,803.813 1056.5,803.5C 1056.5,796.167 1056.5,788.833 1056.5,781.5C 1058.5,781.5 1060.5,781.5 1062.5,781.5C 1062.33,786.179 1062.5,790.845 1063,795.5C 1065.84,791.138 1068.68,786.805 1071.5,782.5 Z"/></g>
<g><path style="opacity:1" fill="#50461b" d="M 1071.5,782.5 C 1073.95,781.527 1076.61,781.194 1079.5,781.5C 1079.82,789.019 1079.49,796.352 1078.5,803.5C 1078.5,796.5 1078.5,789.5 1078.5,782.5C 1076.17,782.5 1073.83,782.5 1071.5,782.5 Z"/></g>
<g><path style="opacity:1" fill="#0f0d05" d="M 1088.5,781.5 C 1093.17,781.5 1097.83,781.5 1102.5,781.5C 1102.5,788.833 1102.5,796.167 1102.5,803.5C 1100.5,803.5 1098.5,803.5 1096.5,803.5C 1096.5,800.833 1096.5,798.167 1096.5,795.5C 1095.45,795.351 1094.45,795.517 1093.5,796C 1091.83,798.333 1090.17,800.667 1088.5,803C 1086.5,803.667 1084.5,803.667 1082.5,803C 1084.36,800.636 1086.03,798.136 1087.5,795.5C 1081.98,790.305 1082.31,785.639 1088.5,781.5 Z"/></g>
<g><path style="opacity:1" fill="#000000" d="M 1107.5,782.5 C 1113.83,782.5 1120.17,782.5 1126.5,782.5C 1126.5,783.5 1126.5,784.5 1126.5,785.5C 1124.26,785.205 1122.26,785.539 1120.5,786.5C 1119.51,791.975 1119.18,797.642 1119.5,803.5C 1117.83,803.5 1116.17,803.5 1114.5,803.5C 1114.5,797.5 1114.5,791.5 1114.5,785.5C 1112.17,785.5 1109.83,785.5 1107.5,785.5C 1107.5,784.5 1107.5,783.5 1107.5,782.5 Z"/></g>
<g><path style="opacity:1" fill="#ecce52" d="M 798.5,786.5 C 800.167,786.5 801.833,786.5 803.5,786.5C 803.5,790.833 803.5,795.167 803.5,799.5C 800.753,799.813 798.086,799.48 795.5,798.5C 797.971,794.874 798.971,790.874 798.5,786.5 Z"/></g>
<g><path style="opacity:1" fill="#eccd52" d="M 900.5,786.5 C 907.182,785.825 909.682,788.825 908,795.5C 906.155,799.795 903.488,800.462 900,797.5C 899.245,793.745 899.411,790.078 900.5,786.5 Z"/></g>
<g><path style="opacity:1" fill="#7d6d2b" d="M 931.5,786.5 C 929.5,786.5 927.5,786.5 925.5,786.5C 925.5,787.5 925.5,788.5 925.5,789.5C 927.167,789.5 928.833,789.5 930.5,789.5C 928.735,790.461 926.735,790.795 924.5,790.5C 924.5,788.833 924.5,787.167 924.5,785.5C 927.059,785.198 929.393,785.532 931.5,786.5 Z"/></g>
<g><path style="opacity:1" fill="#f5d555" d="M 931.5,786.5 C 932.885,787.947 932.552,788.947 930.5,789.5C 928.833,789.5 927.167,789.5 925.5,789.5C 925.5,788.5 925.5,787.5 925.5,786.5C 927.5,786.5 929.5,786.5 931.5,786.5 Z"/></g>
<g><path style="opacity:1" fill="#f5d555" d="M 950.5,786.5 C 952.167,786.5 953.833,786.5 955.5,786.5C 955.5,788.167 955.5,789.833 955.5,791.5C 952.404,792.093 950.071,791.093 948.5,788.5C 948.855,787.478 949.522,786.811 950.5,786.5 Z"/></g>
<g><path style="opacity:1" fill="#6c5e25" d="M 950.5,786.5 C 952.265,785.539 954.265,785.205 956.5,785.5C 956.795,787.735 956.461,789.735 955.5,791.5C 955.5,789.833 955.5,788.167 955.5,786.5C 953.833,786.5 952.167,786.5 950.5,786.5 Z"/></g>
<g><path style="opacity:1" fill="#7d6d2b" d="M 980.5,786.5 C 978.5,786.5 976.5,786.5 974.5,786.5C 974.5,787.5 974.5,788.5 974.5,789.5C 976.167,789.5 977.833,789.5 979.5,789.5C 977.735,790.461 975.735,790.795 973.5,790.5C 973.5,788.833 973.5,787.167 973.5,785.5C 976.059,785.198 978.393,785.532 980.5,786.5 Z"/></g>
<g><path style="opacity:1" fill="#f5d555" d="M 980.5,786.5 C 981.885,787.947 981.552,788.947 979.5,789.5C 977.833,789.5 976.167,789.5 974.5,789.5C 974.5,788.5 974.5,787.5 974.5,786.5C 976.5,786.5 978.5,786.5 980.5,786.5 Z"/></g>
<g><path style="opacity:1" fill="#f5d555" d="M 1091.5,786.5 C 1093.17,786.5 1094.83,786.5 1096.5,786.5C 1096.5,788.167 1096.5,789.833 1096.5,791.5C 1093.4,792.093 1091.07,791.093 1089.5,788.5C 1089.86,787.478 1090.52,786.811 1091.5,786.5 Z"/></g>
<g><path style="opacity:1" fill="#6c5e25" d="M 1091.5,786.5 C 1093.26,785.539 1095.26,785.205 1097.5,785.5C 1097.79,787.735 1097.46,789.735 1096.5,791.5C 1096.5,789.833 1096.5,788.167 1096.5,786.5C 1094.83,786.5 1093.17,786.5 1091.5,786.5 Z"/></g>
<g><path style="opacity:1" fill="#82712d" d="M 1107.5,781.5 C 1107.5,781.833 1107.5,782.167 1107.5,782.5C 1107.5,783.5 1107.5,784.5 1107.5,785.5C 1109.83,785.5 1112.17,785.5 1114.5,785.5C 1114.5,791.5 1114.5,797.5 1114.5,803.5C 1113.51,798.025 1113.18,792.358 1113.5,786.5C 1111.17,786.5 1108.83,786.5 1106.5,786.5C 1106.22,784.585 1106.55,782.919 1107.5,781.5 Z"/></g>
<g><path style="opacity:1" fill="#82722d" d="M 873.5,781.5 C 874.473,783.948 874.806,786.615 874.5,789.5C 877.167,789.5 879.833,789.5 882.5,789.5C 879.713,790.477 876.713,790.81 873.5,790.5C 873.5,787.5 873.5,784.5 873.5,781.5 Z"/></g>
<g><path style="opacity:1" fill="#84722d" d="M 1004.5,787.5 C 1005.4,788.209 1005.74,789.209 1005.5,790.5C 1003.17,790.5 1000.83,790.5 998.5,790.5C 1000.84,790.06 1002.84,789.06 1004.5,787.5 Z"/></g>
<g><path style="opacity:1" fill="#ecce52" d="M 769.5,790.5 C 771.527,790.338 773.527,790.505 775.5,791C 779.037,792.826 779.371,795.16 776.5,798C 774.19,798.497 771.857,798.663 769.5,798.5C 769.5,795.833 769.5,793.167 769.5,790.5 Z"/></g>
<g><path style="opacity:1" fill="#e4c64f" d="M 999.5,793.5 C 1001.5,793.5 1003.5,793.5 1005.5,793.5C 1005.67,798.494 1003.34,800.328 998.5,799C 997.243,796.924 997.576,795.09 999.5,793.5 Z"/></g>
<g><path style="opacity:1" fill="#f3d354" d="M 826.5,794.5 C 828.857,794.337 831.19,794.503 833.5,795C 834.833,796.333 834.833,797.667 833.5,799C 831.19,799.497 828.857,799.663 826.5,799.5C 826.5,797.833 826.5,796.167 826.5,794.5 Z"/></g>
<g><path style="opacity:1" fill="#eacb51" d="M 924.5,794.5 C 927.167,794.5 929.833,794.5 932.5,794.5C 932.714,796.144 932.38,797.644 931.5,799C 929.19,799.497 926.857,799.663 924.5,799.5C 924.5,797.833 924.5,796.167 924.5,794.5 Z"/></g>
<g><path style="opacity:1" fill="#eacb51" d="M 973.5,794.5 C 976.167,794.5 978.833,794.5 981.5,794.5C 981.714,796.144 981.38,797.644 980.5,799C 978.19,799.497 975.857,799.663 973.5,799.5C 973.5,797.833 973.5,796.167 973.5,794.5 Z"/></g>
<g><path style="opacity:1" fill="#473e18" d="M 1052.5,799.5 C 1053.48,803.298 1053.82,807.298 1053.5,811.5C 1051.5,811.5 1049.5,811.5 1047.5,811.5C 1047.5,808.833 1047.5,806.167 1047.5,803.5C 1048.47,805.607 1048.8,807.941 1048.5,810.5C 1049.83,810.5 1051.17,810.5 1052.5,810.5C 1052.5,806.833 1052.5,803.167 1052.5,799.5 Z"/></g>
<g><path style="opacity:1" fill="#8e7b31" d="M 888.5,830.5 C 881.167,830.5 873.833,830.5 866.5,830.5C 866.5,839.833 866.5,849.167 866.5,858.5C 865.506,849.014 865.173,839.348 865.5,829.5C 873.352,829.175 881.018,829.508 888.5,830.5 Z"/></g>
<g><path style="opacity:1" fill="#030200" d="M 888.5,830.5 C 888.5,839.833 888.5,849.167 888.5,858.5C 886.5,858.5 884.5,858.5 882.5,858.5C 882.5,850.833 882.5,843.167 882.5,835.5C 879.038,834.518 875.371,834.185 871.5,834.5C 871.5,842.5 871.5,850.5 871.5,858.5C 869.833,858.5 868.167,858.5 866.5,858.5C 866.5,849.167 866.5,839.833 866.5,830.5C 873.833,830.5 881.167,830.5 888.5,830.5 Z"/></g>
<g><path style="opacity:1" fill="#645722" d="M 882.5,835.5 C 879.167,835.5 875.833,835.5 872.5,835.5C 872.825,843.352 872.492,851.018 871.5,858.5C 871.5,850.5 871.5,842.5 871.5,834.5C 875.371,834.185 879.038,834.518 882.5,835.5 Z"/></g>
<g><path style="opacity:1" fill="#0f0c05" d="M 900.5,836.5 C 912.679,836.172 917.179,841.838 914,853.5C 913.167,855.667 911.667,857.167 909.5,858C 897.554,859.717 892.721,854.551 895,842.5C 896.36,839.977 898.193,837.977 900.5,836.5 Z"/></g>
<g><path style="opacity:1" fill="#0a0803" d="M 974.5,836.5 C 977.85,836.335 981.183,836.502 984.5,837C 986.286,837.785 987.786,838.951 989,840.5C 989.499,846.491 989.666,852.491 989.5,858.5C 986.762,859.035 984.928,858.035 984,855.5C 979.924,859.034 975.591,859.367 971,856.5C 969.52,846.823 973.687,843.156 983.5,845.5C 983.714,843.856 983.38,842.356 982.5,841C 979.46,840.68 976.46,840.68 973.5,841C 972.257,839.184 972.59,837.684 974.5,836.5 Z"/></g>
<g><path style="opacity:1" fill="#110e06" d="M 1000.5,836.5 C 1003.52,836.335 1006.52,836.502 1009.5,837C 1011.58,838.526 1011.58,840.36 1009.5,842.5C 1001.53,840.308 998.694,843.308 1001,851.5C 1003.76,855.142 1006.92,855.475 1010.5,852.5C 1011.89,854.674 1011.56,856.507 1009.5,858C 997.149,860.209 992.316,855.043 995,842.5C 996.36,839.977 998.193,837.977 1000.5,836.5 Z"/></g>
<g><path style="opacity:1" fill="#373013" d="M 1014.5,837.5 C 1014.5,837.167 1014.5,836.833 1014.5,836.5C 1021.17,836.5 1027.83,836.5 1034.5,836.5C 1034.5,838.167 1034.5,839.833 1034.5,841.5C 1032.17,841.5 1029.83,841.5 1027.5,841.5C 1029.26,840.539 1031.26,840.205 1033.5,840.5C 1033.5,839.5 1033.5,838.5 1033.5,837.5C 1027.17,837.5 1020.83,837.5 1014.5,837.5 Z"/></g>
<g><path style="opacity:1" fill="#0c0a03" d="M 924.5,836.5 C 929.5,836.5 934.5,836.5 939.5,836.5C 939.5,842.5 939.5,848.5 939.5,854.5C 940.5,854.5 941.5,854.5 942.5,854.5C 942.5,858.5 942.5,862.5 942.5,866.5C 940.833,866.5 939.167,866.5 937.5,866.5C 937.5,863.833 937.5,861.167 937.5,858.5C 932.5,858.5 927.5,858.5 922.5,858.5C 922.5,861.167 922.5,863.833 922.5,866.5C 920.833,866.5 919.167,866.5 917.5,866.5C 916.757,860.906 917.923,855.906 921,851.5C 922.767,846.624 923.933,841.624 924.5,836.5 Z"/></g>
<g><path style="opacity:1" fill="#100d05" d="M 946.5,836.5 C 948.5,836.5 950.5,836.5 952.5,836.5C 952.335,839.85 952.502,843.183 953,846.5C 955.5,843.333 958,840.167 960.5,837C 962.833,836.333 965.167,836.333 967.5,837C 964.588,840.169 961.921,843.502 959.5,847C 961.765,850.936 964.432,854.603 967.5,858C 965.5,858.667 963.5,858.667 961.5,858C 958.784,854.739 955.951,851.572 953,848.5C 952.502,851.817 952.335,855.15 952.5,858.5C 950.5,858.5 948.5,858.5 946.5,858.5C 946.5,851.167 946.5,843.833 946.5,836.5 Z"/></g>
<g><path style="opacity:1" fill="#000000" d="M 1014.5,837.5 C 1020.83,837.5 1027.17,837.5 1033.5,837.5C 1033.5,838.5 1033.5,839.5 1033.5,840.5C 1031.26,840.205 1029.26,840.539 1027.5,841.5C 1026.51,846.975 1026.18,852.642 1026.5,858.5C 1024.83,858.5 1023.17,858.5 1021.5,858.5C 1021.5,852.5 1021.5,846.5 1021.5,840.5C 1019.17,840.5 1016.83,840.5 1014.5,840.5C 1014.5,839.5 1014.5,838.5 1014.5,837.5 Z"/></g>
<g><path style="opacity:1" fill="#eccd52" d="M 901.5,841.5 C 908.182,840.825 910.682,843.825 909,850.5C 907.155,854.795 904.488,855.462 901,852.5C 900.245,848.745 900.411,845.078 901.5,841.5 Z"/></g>
<g><path style="opacity:1" fill="#ecce52" d="M 928.5,841.5 C 930.167,841.5 931.833,841.5 933.5,841.5C 933.5,845.833 933.5,850.167 933.5,854.5C 930.753,854.813 928.086,854.48 925.5,853.5C 927.971,849.874 928.971,845.874 928.5,841.5 Z"/></g>
<g><path style="opacity:1" fill="#82712d" d="M 1014.5,836.5 C 1014.5,836.833 1014.5,837.167 1014.5,837.5C 1014.5,838.5 1014.5,839.5 1014.5,840.5C 1016.83,840.5 1019.17,840.5 1021.5,840.5C 1021.5,846.5 1021.5,852.5 1021.5,858.5C 1020.51,853.025 1020.18,847.358 1020.5,841.5C 1018.17,841.5 1015.83,841.5 1013.5,841.5C 1013.22,839.585 1013.55,837.919 1014.5,836.5 Z"/></g>
<g><path style="opacity:1" fill="#efd053" d="M 977.5,848.5 C 979.5,848.5 981.5,848.5 983.5,848.5C 983.673,853.323 981.339,855.323 976.5,854.5C 976.325,852.379 976.659,850.379 977.5,848.5 Z"/></g>
</svg>
