<?xml version="1.0" encoding="utf-8"?>
<!-- Generator: Adobe Illustrator 27.5.0, SVG Export Plug-In . SVG Version: 6.00 Build 0)  -->
<svg version="1.1" xmlns="http://www.w3.org/2000/svg" xmlns:xlink="http://www.w3.org/1999/xlink" x="0px" y="0px"
	 viewBox="0 0 750 500" style="enable-background:new 0 0 750 500;" xml:space="preserve">
<g id="BACKGROUND">
	<rect style="fill:#F7F7F7;" width="750" height="500"/>
</g>
<g id="OBJECTS">
	<g>
		<g>
			<linearGradient id="SVGID_1_" gradientUnits="userSpaceOnUse" x1="119.0187" y1="49.4042" x2="297.0187" y2="209.4041">
				<stop  offset="0" style="stop-color:#B6FFF4"/>
				<stop  offset="1" style="stop-color:#ADDFD6"/>
			</linearGradient>
			<polygon style="fill:url(#SVGID_1_);" points="173.651,92.852 154.911,65.821 130.986,65.821 149.726,92.852 			"/>
			
				<linearGradient id="SVGID_00000066485436041934813510000016454605229305703322_" gradientUnits="userSpaceOnUse" x1="102.0705" y1="68.2591" x2="280.0709" y2="228.2593">
				<stop  offset="0" style="stop-color:#B6FFF4"/>
				<stop  offset="1" style="stop-color:#ADDFD6"/>
			</linearGradient>
			<path style="fill:url(#SVGID_00000066485436041934813510000016454605229305703322_);" d="M112.453,92.852h23.925l-16.583-23.919
				c-4.482,3.127-7.421,8.314-7.421,14.193v9.611L112.453,92.852z"/>
			
				<linearGradient id="SVGID_00000176753792512845042770000008069109257315974530_" gradientUnits="userSpaceOnUse" x1="152.3323" y1="12.3427" x2="330.3323" y2="172.3426">
				<stop  offset="0" style="stop-color:#B6FFF4"/>
				<stop  offset="1" style="stop-color:#ADDFD6"/>
			</linearGradient>
			<polygon style="fill:url(#SVGID_00000176753792512845042770000008069109257315974530_);" points="248.195,92.852 229.455,65.821 
				205.53,65.821 224.27,92.852 			"/>
			
				<linearGradient id="SVGID_00000047778856949862471290000002000223114826025622_" gradientUnits="userSpaceOnUse" x1="135.6755" y1="30.8735" x2="313.6756" y2="190.8735">
				<stop  offset="0" style="stop-color:#B6FFF4"/>
				<stop  offset="1" style="stop-color:#ADDFD6"/>
			</linearGradient>
			<polygon style="fill:url(#SVGID_00000047778856949862471290000002000223114826025622_);" points="210.923,92.852 192.183,65.821 
				168.258,65.821 186.998,92.852 			"/>
			
				<linearGradient id="SVGID_00000055693472359240479540000010999597863403172736_" gradientUnits="userSpaceOnUse" x1="166.9181" y1="-3.8837" x2="344.9182" y2="156.1162">
				<stop  offset="0" style="stop-color:#B6FFF4"/>
				<stop  offset="1" style="stop-color:#ADDFD6"/>
			</linearGradient>
			<path style="fill:url(#SVGID_00000055693472359240479540000010999597863403172736_);" d="M268.128,92.852v-9.726
				c0-9.557-7.747-17.304-17.304-17.304h-8.022l18.74,27.03H268.128z"/>
			
				<linearGradient id="SVGID_00000075130540033802510330000000475384657174842251_" gradientUnits="userSpaceOnUse" x1="102.3207" y1="69.6992" x2="270.486" y2="237.8644">
				<stop  offset="0" style="stop-color:#B391FF"/>
				<stop  offset="0.2775" style="stop-color:#AB8AFD"/>
				<stop  offset="0.7004" style="stop-color:#9675F7"/>
				<stop  offset="1" style="stop-color:#8363F2"/>
			</linearGradient>
			<path style="fill:url(#SVGID_00000075130540033802510330000000475384657174842251_);" d="M112.374,103.82v100.452
				c0,9.557,7.747,17.304,17.304,17.304h121.146c9.557,0,17.304-7.747,17.304-17.304V103.82H112.374z M211.379,167.15
				l-30.063,17.357c-3.427,1.979-7.712-0.495-7.712-4.452v-34.714c0-3.958,4.284-6.431,7.712-4.452l30.063,17.357
				C214.806,160.225,214.806,165.171,211.379,167.15z"/>
		</g>
	</g>
	<g>
		
			<linearGradient id="SVGID_00000052094822263044545050000017090669189906810766_" gradientUnits="userSpaceOnUse" x1="120.9478" y1="282.9999" x2="120.9478" y2="436.8343">
			<stop  offset="0" style="stop-color:#B391FF"/>
			<stop  offset="0.2775" style="stop-color:#AB8AFD"/>
			<stop  offset="0.7004" style="stop-color:#9675F7"/>
			<stop  offset="1" style="stop-color:#8363F2"/>
		</linearGradient>
		
			<rect x="112.374" y="389.534" style="fill:url(#SVGID_00000052094822263044545050000017090669189906810766_);" width="17.147" height="16.78"/>
		
			<linearGradient id="SVGID_00000003811455593765095230000016492559673487499948_" gradientUnits="userSpaceOnUse" x1="120.9478" y1="283" x2="120.9478" y2="436.8344">
			<stop  offset="0" style="stop-color:#B391FF"/>
			<stop  offset="0.2775" style="stop-color:#AB8AFD"/>
			<stop  offset="0.7004" style="stop-color:#9675F7"/>
			<stop  offset="1" style="stop-color:#8363F2"/>
		</linearGradient>
		
			<rect x="112.374" y="361.786" style="fill:url(#SVGID_00000003811455593765095230000016492559673487499948_);" width="17.147" height="16.78"/>
		
			<linearGradient id="SVGID_00000131341719627498506110000000525428791377826968_" gradientUnits="userSpaceOnUse" x1="345.896" y1="282.9999" x2="345.896" y2="436.8343">
			<stop  offset="0" style="stop-color:#B391FF"/>
			<stop  offset="0.2775" style="stop-color:#AB8AFD"/>
			<stop  offset="0.7004" style="stop-color:#9675F7"/>
			<stop  offset="1" style="stop-color:#8363F2"/>
		</linearGradient>
		
			<rect x="337.322" y="389.534" style="fill:url(#SVGID_00000131341719627498506110000000525428791377826968_);" width="17.147" height="16.78"/>
		
			<linearGradient id="SVGID_00000067955387721287222150000015138465360316384182_" gradientUnits="userSpaceOnUse" x1="345.896" y1="283" x2="345.896" y2="436.8338">
			<stop  offset="0" style="stop-color:#B391FF"/>
			<stop  offset="0.2775" style="stop-color:#AB8AFD"/>
			<stop  offset="0.7004" style="stop-color:#9675F7"/>
			<stop  offset="1" style="stop-color:#8363F2"/>
		</linearGradient>
		<path style="fill:url(#SVGID_00000067955387721287222150000015138465360316384182_);" d="M337.322,295.32h17.147v-1.315
			c0-8.605-6.976-15.581-15.581-15.581h-1.566V295.32z"/>
		
			<linearGradient id="SVGID_00000028308180473543443620000009018205117267210409_" gradientUnits="userSpaceOnUse" x1="345.896" y1="283" x2="345.896" y2="436.8344">
			<stop  offset="0" style="stop-color:#B391FF"/>
			<stop  offset="0.2775" style="stop-color:#AB8AFD"/>
			<stop  offset="0.7004" style="stop-color:#9675F7"/>
			<stop  offset="1" style="stop-color:#8363F2"/>
		</linearGradient>
		
			<rect x="337.322" y="361.786" style="fill:url(#SVGID_00000028308180473543443620000009018205117267210409_);" width="17.147" height="16.78"/>
		
			<linearGradient id="SVGID_00000151544870810204431200000003436012098742520730_" gradientUnits="userSpaceOnUse" x1="120.9478" y1="283" x2="120.9478" y2="436.8344">
			<stop  offset="0" style="stop-color:#B391FF"/>
			<stop  offset="0.2775" style="stop-color:#AB8AFD"/>
			<stop  offset="0.7004" style="stop-color:#9675F7"/>
			<stop  offset="1" style="stop-color:#8363F2"/>
		</linearGradient>
		
			<rect x="112.374" y="306.289" style="fill:url(#SVGID_00000151544870810204431200000003436012098742520730_);" width="17.147" height="16.78"/>
		
			<linearGradient id="SVGID_00000044159058534201580870000010237816252937005746_" gradientUnits="userSpaceOnUse" x1="120.9478" y1="283" x2="120.9478" y2="436.8342">
			<stop  offset="0" style="stop-color:#B391FF"/>
			<stop  offset="0.2775" style="stop-color:#AB8AFD"/>
			<stop  offset="0.7004" style="stop-color:#9675F7"/>
			<stop  offset="1" style="stop-color:#8363F2"/>
		</linearGradient>
		
			<rect x="112.374" y="334.037" style="fill:url(#SVGID_00000044159058534201580870000010237816252937005746_);" width="17.147" height="16.78"/>
		
			<linearGradient id="SVGID_00000150792225393414655440000017671454253251456919_" gradientUnits="userSpaceOnUse" x1="120.9478" y1="283.0005" x2="120.9478" y2="436.8343">
			<stop  offset="0" style="stop-color:#B391FF"/>
			<stop  offset="0.2775" style="stop-color:#AB8AFD"/>
			<stop  offset="0.7004" style="stop-color:#9675F7"/>
			<stop  offset="1" style="stop-color:#8363F2"/>
		</linearGradient>
		<path style="fill:url(#SVGID_00000150792225393414655440000017671454253251456919_);" d="M129.521,417.283h-17.147v1.315
			c0,8.605,6.976,15.581,15.581,15.581h1.566V417.283z"/>
		
			<linearGradient id="SVGID_00000120544798298536518590000014584252593632908690_" gradientUnits="userSpaceOnUse" x1="345.896" y1="283" x2="345.896" y2="436.8342">
			<stop  offset="0" style="stop-color:#B391FF"/>
			<stop  offset="0.2775" style="stop-color:#AB8AFD"/>
			<stop  offset="0.7004" style="stop-color:#9675F7"/>
			<stop  offset="1" style="stop-color:#8363F2"/>
		</linearGradient>
		
			<rect x="337.322" y="334.037" style="fill:url(#SVGID_00000120544798298536518590000014584252593632908690_);" width="17.147" height="16.78"/>
		
			<linearGradient id="SVGID_00000168810850774861638360000018227673103073692600_" gradientUnits="userSpaceOnUse" x1="120.9478" y1="283" x2="120.9478" y2="436.8338">
			<stop  offset="0" style="stop-color:#B391FF"/>
			<stop  offset="0.2775" style="stop-color:#AB8AFD"/>
			<stop  offset="0.7004" style="stop-color:#9675F7"/>
			<stop  offset="1" style="stop-color:#8363F2"/>
		</linearGradient>
		<path style="fill:url(#SVGID_00000168810850774861638360000018227673103073692600_);" d="M129.521,295.32v-16.896h-1.566
			c-8.605,0-15.581,6.976-15.581,15.581v1.315H129.521z"/>
		
			<linearGradient id="SVGID_00000061430731701264922110000016260972055155253930_" gradientUnits="userSpaceOnUse" x1="345.896" y1="283.0005" x2="345.896" y2="436.8343">
			<stop  offset="0" style="stop-color:#B391FF"/>
			<stop  offset="0.2775" style="stop-color:#AB8AFD"/>
			<stop  offset="0.7004" style="stop-color:#9675F7"/>
			<stop  offset="1" style="stop-color:#8363F2"/>
		</linearGradient>
		<path style="fill:url(#SVGID_00000061430731701264922110000016260972055155253930_);" d="M337.322,417.283v16.896h1.566
			c8.605,0,15.581-6.976,15.581-15.581v-1.315H337.322z"/>
		
			<linearGradient id="SVGID_00000008146051685113100880000000053707725663218056_" gradientUnits="userSpaceOnUse" x1="141.3869" y1="264.2663" x2="322.641" y2="445.5204">
			<stop  offset="0" style="stop-color:#FFE7AB"/>
			<stop  offset="1.300000e-07" style="stop-color:#FFEA69"/>
			<stop  offset="0.0665" style="stop-color:#FFDD7A"/>
			<stop  offset="0.1984" style="stop-color:#FFC794"/>
			<stop  offset="0.3429" style="stop-color:#FFB6A9"/>
			<stop  offset="0.5044" style="stop-color:#FFAAB8"/>
			<stop  offset="0.6968" style="stop-color:#FFA3C0"/>
			<stop  offset="1" style="stop-color:#FFA1C3"/>
		</linearGradient>
		<path style="fill:url(#SVGID_00000008146051685113100880000000053707725663218056_);" d="M140.49,434.179h185.864V278.424H140.49
			V434.179z M224.487,334.492l30.063,17.357c3.427,1.979,3.427,6.926,0,8.904l-30.063,17.357c-3.427,1.979-7.712-0.495-7.712-4.452
			v-34.714C216.775,334.987,221.059,332.513,224.487,334.492z"/>
		
			<linearGradient id="SVGID_00000088826983846728081630000004721313139346538133_" gradientUnits="userSpaceOnUse" x1="345.896" y1="283" x2="345.896" y2="436.8344">
			<stop  offset="0" style="stop-color:#B391FF"/>
			<stop  offset="0.2775" style="stop-color:#AB8AFD"/>
			<stop  offset="0.7004" style="stop-color:#9675F7"/>
			<stop  offset="1" style="stop-color:#8363F2"/>
		</linearGradient>
		
			<rect x="337.322" y="306.289" style="fill:url(#SVGID_00000088826983846728081630000004721313139346538133_);" width="17.147" height="16.78"/>
	</g>
	<g>
		<g>
			
				<linearGradient id="SVGID_00000029038899364011205370000011406135483924764326_" gradientUnits="userSpaceOnUse" x1="498.4383" y1="239.5619" x2="665.3213" y2="406.4449">
				<stop  offset="0" style="stop-color:#B6FFF4"/>
				<stop  offset="1" style="stop-color:#ADDFD6"/>
			</linearGradient>
			
				<rect x="620.479" y="361.786" style="fill:url(#SVGID_00000029038899364011205370000011406135483924764326_);" width="17.147" height="16.78"/>
			
				<linearGradient id="SVGID_00000030456718303394906820000006496040939052063120_" gradientUnits="userSpaceOnUse" x1="415.0224" y1="322.9774" x2="581.9059" y2="489.8609">
				<stop  offset="0" style="stop-color:#B6FFF4"/>
				<stop  offset="1" style="stop-color:#ADDFD6"/>
			</linearGradient>
			
				<rect x="453.647" y="361.786" style="fill:url(#SVGID_00000030456718303394906820000006496040939052063120_);" width="17.147" height="16.78"/>
			
				<linearGradient id="SVGID_00000005983236008756605680000009955972356129391502_" gradientUnits="userSpaceOnUse" x1="484.564" y1="253.4361" x2="651.447" y2="420.3191">
				<stop  offset="0" style="stop-color:#B6FFF4"/>
				<stop  offset="1" style="stop-color:#ADDFD6"/>
			</linearGradient>
			
				<rect x="620.479" y="389.534" style="fill:url(#SVGID_00000005983236008756605680000009955972356129391502_);" width="17.147" height="16.78"/>
			
				<linearGradient id="SVGID_00000119096430860115148990000015972055679263235210_" gradientUnits="userSpaceOnUse" x1="401.1481" y1="336.8516" x2="568.0316" y2="503.7351">
				<stop  offset="0" style="stop-color:#B6FFF4"/>
				<stop  offset="1" style="stop-color:#ADDFD6"/>
			</linearGradient>
			
				<rect x="453.647" y="389.534" style="fill:url(#SVGID_00000119096430860115148990000015972055679263235210_);" width="17.147" height="16.78"/>
			
				<linearGradient id="SVGID_00000013912291945392344550000004162474876926473630_" gradientUnits="userSpaceOnUse" x1="537.8086" y1="200.1919" x2="704.6914" y2="367.0747">
				<stop  offset="0" style="stop-color:#B6FFF4"/>
				<stop  offset="1" style="stop-color:#ADDFD6"/>
			</linearGradient>
			<path style="fill:url(#SVGID_00000013912291945392344550000004162474876926473630_);" d="M620.479,295.32h17.147v-1.315
				c0-8.605-6.976-15.581-15.581-15.581h-1.566V295.32z"/>
			
				<linearGradient id="SVGID_00000026138020424413381830000007220867525623235994_" gradientUnits="userSpaceOnUse" x1="428.8969" y1="309.1031" x2="595.7804" y2="475.9866">
				<stop  offset="0" style="stop-color:#B6FFF4"/>
				<stop  offset="1" style="stop-color:#ADDFD6"/>
			</linearGradient>
			
				<rect x="453.647" y="334.037" style="fill:url(#SVGID_00000026138020424413381830000007220867525623235994_);" width="17.147" height="16.78"/>
			
				<linearGradient id="SVGID_00000046306421322123885710000015224626875314550955_" gradientUnits="userSpaceOnUse" x1="442.7711" y1="295.2288" x2="609.6546" y2="462.1123">
				<stop  offset="0" style="stop-color:#B6FFF4"/>
				<stop  offset="1" style="stop-color:#ADDFD6"/>
			</linearGradient>
			
				<rect x="453.647" y="306.289" style="fill:url(#SVGID_00000046306421322123885710000015224626875314550955_);" width="17.147" height="16.78"/>
			
				<linearGradient id="SVGID_00000165925411956565028340000009850687685490247325_" gradientUnits="userSpaceOnUse" x1="470.6614" y1="267.3401" x2="637.5439" y2="434.2226">
				<stop  offset="0" style="stop-color:#B6FFF4"/>
				<stop  offset="1" style="stop-color:#ADDFD6"/>
			</linearGradient>
			<path style="fill:url(#SVGID_00000165925411956565028340000009850687685490247325_);" d="M620.479,417.283v16.896h1.566
				c8.605,0,15.581-6.976,15.581-15.581v-1.315H620.479z"/>
			
				<linearGradient id="SVGID_00000177464313686380812550000015855360808239655857_" gradientUnits="userSpaceOnUse" x1="456.6744" y1="281.3256" x2="623.5574" y2="448.2085">
				<stop  offset="0" style="stop-color:#B6FFF4"/>
				<stop  offset="1" style="stop-color:#ADDFD6"/>
			</linearGradient>
			<path style="fill:url(#SVGID_00000177464313686380812550000015855360808239655857_);" d="M470.794,295.32v-16.896h-1.566
				c-8.605,0-15.581,6.976-15.581,15.581v1.315H470.794z"/>
			
				<linearGradient id="SVGID_00000128452492137569240390000015528571755342637489_" gradientUnits="userSpaceOnUse" x1="389.5267" y1="348.4732" x2="556.4099" y2="515.3564">
				<stop  offset="0" style="stop-color:#B6FFF4"/>
				<stop  offset="1" style="stop-color:#ADDFD6"/>
			</linearGradient>
			<path style="fill:url(#SVGID_00000128452492137569240390000015528571755342637489_);" d="M470.794,417.283h-17.147v1.315
				c0,8.605,6.976,15.581,15.581,15.581h1.566V417.283z"/>
			
				<linearGradient id="SVGID_00000141456276514443372940000010965650882235846281_" gradientUnits="userSpaceOnUse" x1="463.6676" y1="274.3325" x2="630.5507" y2="441.2155">
				<stop  offset="0" style="stop-color:#B391FF"/>
				<stop  offset="0.2775" style="stop-color:#AB8AFD"/>
				<stop  offset="0.7004" style="stop-color:#9675F7"/>
				<stop  offset="1" style="stop-color:#8363F2"/>
			</linearGradient>
			<path style="fill:url(#SVGID_00000141456276514443372940000010965650882235846281_);" d="M481.763,434.179H609.51V278.424
				H481.763V434.179z M536.701,334.492l30.063,17.357c3.427,1.979,3.427,6.926,0,8.904l-30.063,17.357
				c-3.427,1.979-7.711-0.495-7.711-4.452v-34.714C528.99,334.987,533.274,332.513,536.701,334.492z"/>
			
				<linearGradient id="SVGID_00000132798756544615186490000007671785146741191321_" gradientUnits="userSpaceOnUse" x1="526.187" y1="211.8133" x2="693.07" y2="378.6963">
				<stop  offset="0" style="stop-color:#B6FFF4"/>
				<stop  offset="1" style="stop-color:#ADDFD6"/>
			</linearGradient>
			
				<rect x="620.479" y="306.289" style="fill:url(#SVGID_00000132798756544615186490000007671785146741191321_);" width="17.147" height="16.78"/>
			
				<linearGradient id="SVGID_00000024705810278580342250000014694582538532938140_" gradientUnits="userSpaceOnUse" x1="512.3127" y1="225.6875" x2="679.1957" y2="392.5706">
				<stop  offset="0" style="stop-color:#B6FFF4"/>
				<stop  offset="1" style="stop-color:#ADDFD6"/>
			</linearGradient>
			
				<rect x="620.479" y="334.037" style="fill:url(#SVGID_00000024705810278580342250000014694582538532938140_);" width="17.147" height="16.78"/>
		</g>
	</g>
	<g>
		
			<linearGradient id="SVGID_00000134942833438315736850000017821250508797089465_" gradientUnits="userSpaceOnUse" x1="392" y1="79.3364" x2="655.0478" y2="79.3364">
			<stop  offset="0" style="stop-color:#B391FF"/>
			<stop  offset="0.2775" style="stop-color:#AB8AFD"/>
			<stop  offset="0.7004" style="stop-color:#9675F7"/>
			<stop  offset="1" style="stop-color:#8363F2"/>
		</linearGradient>
		<polygon style="fill:url(#SVGID_00000134942833438315736850000017821250508797089465_);" points="501.918,92.852 483.178,65.821 
			459.252,65.821 477.993,92.852 		"/>
		
			<linearGradient id="SVGID_00000015343283301914696250000017677415621348256667_" gradientUnits="userSpaceOnUse" x1="392" y1="79.3364" x2="655.0474" y2="79.3364">
			<stop  offset="0" style="stop-color:#B391FF"/>
			<stop  offset="0.2775" style="stop-color:#AB8AFD"/>
			<stop  offset="0.7004" style="stop-color:#9675F7"/>
			<stop  offset="1" style="stop-color:#8363F2"/>
		</linearGradient>
		<polygon style="fill:url(#SVGID_00000015343283301914696250000017677415621348256667_);" points="464.645,92.852 445.905,65.821 
			421.98,65.821 440.72,92.852 		"/>
		
			<linearGradient id="SVGID_00000156574055119096449410000017154236026415465100_" gradientUnits="userSpaceOnUse" x1="392" y1="79.3364" x2="655.0477" y2="79.3364">
			<stop  offset="0" style="stop-color:#B391FF"/>
			<stop  offset="0.2775" style="stop-color:#AB8AFD"/>
			<stop  offset="0.7004" style="stop-color:#9675F7"/>
			<stop  offset="1" style="stop-color:#8363F2"/>
		</linearGradient>
		<path style="fill:url(#SVGID_00000156574055119096449410000017154236026415465100_);" d="M627.082,92.852h10.544V81.402
			c0-8.605-6.976-15.581-15.581-15.581h-13.703L627.082,92.852z"/>
		
			<linearGradient id="SVGID_00000081636755193089875500000015542494877921839806_" gradientUnits="userSpaceOnUse" x1="392" y1="79.4339" x2="655.0471" y2="79.4339">
			<stop  offset="0" style="stop-color:#B391FF"/>
			<stop  offset="0.2775" style="stop-color:#AB8AFD"/>
			<stop  offset="0.7004" style="stop-color:#9675F7"/>
			<stop  offset="1" style="stop-color:#8363F2"/>
		</linearGradient>
		<path style="fill:url(#SVGID_00000081636755193089875500000015542494877921839806_);" d="M427.373,92.852l-18.605-26.835
			c-7.49,1.133-13.238,7.58-13.238,15.386v11.449H427.373z"/>
		
			<linearGradient id="SVGID_00000000912103432033614950000003471818728225028276_" gradientUnits="userSpaceOnUse" x1="392.0005" y1="79.3364" x2="655.0476" y2="79.3364">
			<stop  offset="0" style="stop-color:#B391FF"/>
			<stop  offset="0.2775" style="stop-color:#AB8AFD"/>
			<stop  offset="0.7004" style="stop-color:#9675F7"/>
			<stop  offset="1" style="stop-color:#8363F2"/>
		</linearGradient>
		<polygon style="fill:url(#SVGID_00000000912103432033614950000003471818728225028276_);" points="613.734,92.852 594.994,65.821 
			571.069,65.821 589.809,92.852 		"/>
		
			<linearGradient id="SVGID_00000080202124108724181490000006655783498142821551_" gradientUnits="userSpaceOnUse" x1="391.9998" y1="79.3364" x2="655.0477" y2="79.3364">
			<stop  offset="0" style="stop-color:#B391FF"/>
			<stop  offset="0.2775" style="stop-color:#AB8AFD"/>
			<stop  offset="0.7004" style="stop-color:#9675F7"/>
			<stop  offset="1" style="stop-color:#8363F2"/>
		</linearGradient>
		<polygon style="fill:url(#SVGID_00000080202124108724181490000006655783498142821551_);" points="539.19,92.852 520.45,65.821 
			496.525,65.821 515.265,92.852 		"/>
		
			<linearGradient id="SVGID_00000166675245305263127290000003873934805682828928_" gradientUnits="userSpaceOnUse" x1="431.6073" y1="73.1638" x2="606.9692" y2="248.5258">
			<stop  offset="0" style="stop-color:#FFE7AB"/>
			<stop  offset="1.300000e-07" style="stop-color:#FFEA69"/>
			<stop  offset="0.0665" style="stop-color:#FFDD7A"/>
			<stop  offset="0.1984" style="stop-color:#FFC794"/>
			<stop  offset="0.3429" style="stop-color:#FFB6A9"/>
			<stop  offset="0.5044" style="stop-color:#FFAAB8"/>
			<stop  offset="0.6968" style="stop-color:#FFA3C0"/>
			<stop  offset="1" style="stop-color:#FFA1C3"/>
		</linearGradient>
		<path style="fill:url(#SVGID_00000166675245305263127290000003873934805682828928_);" d="M395.53,103.82v102.175
			c0,8.605,6.976,15.581,15.581,15.581h210.934c8.605,0,15.581-6.976,15.581-15.581V103.82H395.53z M537.706,167.15l-30.063,17.357
			c-3.427,1.979-7.711-0.495-7.711-4.452v-34.714c0-3.958,4.284-6.431,7.711-4.452l30.063,17.357
			C541.133,160.225,541.133,165.171,537.706,167.15z"/>
		
			<linearGradient id="SVGID_00000037664079302755098240000001361973327356183211_" gradientUnits="userSpaceOnUse" x1="392.0001" y1="79.3364" x2="655.0477" y2="79.3364">
			<stop  offset="0" style="stop-color:#B391FF"/>
			<stop  offset="0.2775" style="stop-color:#AB8AFD"/>
			<stop  offset="0.7004" style="stop-color:#9675F7"/>
			<stop  offset="1" style="stop-color:#8363F2"/>
		</linearGradient>
		<polygon style="fill:url(#SVGID_00000037664079302755098240000001361973327356183211_);" points="576.462,92.852 557.722,65.821 
			533.797,65.821 552.537,92.852 		"/>
	</g>
</g>
</svg>
