<?xml version="1.0" encoding="UTF-8"?>
<!DOCTYPE svg PUBLIC "-//W3C//DTD SVG 1.1//EN" "http://www.w3.org/Graphics/SVG/1.1/DTD/svg11.dtd">
<svg xmlns="http://www.w3.org/2000/svg" version="1.1" width="2560px" height="1440px" style="shape-rendering:geometricPrecision; text-rendering:geometricPrecision; image-rendering:optimizeQuality; fill-rule:evenodd; clip-rule:evenodd" xmlns:xlink="http://www.w3.org/1999/xlink">
<g><path style="opacity:1" fill="#e7d8cd" d="M -0.5,-0.5 C 852.833,-0.5 1706.17,-0.5 2559.5,-0.5C 2559.5,479.5 2559.5,959.5 2559.5,1439.5C 1706.17,1439.5 852.833,1439.5 -0.5,1439.5C -0.5,959.5 -0.5,479.5 -0.5,-0.5 Z"/></g>
<g><path style="opacity:1" fill="#f897b4" d="M 854.5,551.5 C 840.588,550.879 826.921,551.546 813.5,553.5C 813.5,552.5 813.5,551.5 813.5,550.5C 827.344,550.171 841.01,550.504 854.5,551.5 Z"/></g>
<g><path style="opacity:1" fill="#fe81ab" d="M 1110.5,549.5 C 1138.97,549.142 1151.47,563.142 1148,591.5C 1146.4,605.208 1138.9,613.708 1125.5,617C 1096.12,618.95 1082.95,605.117 1086,575.5C 1088.6,561.401 1096.77,552.734 1110.5,549.5 Z"/></g>
<g><path style="opacity:1" fill="#fe80ab" d="M 1422.5,615.5 C 1416.02,616.491 1409.35,616.824 1402.5,616.5C 1401.3,611.943 1399.97,607.443 1398.5,603C 1392.51,602.501 1386.51,602.334 1380.5,602.5C 1379.5,607.167 1378.5,611.833 1377.5,616.5C 1370.42,617.126 1363.75,616.459 1357.5,614.5C 1364.55,593.405 1371.88,572.405 1379.5,551.5C 1386.47,550.503 1393.47,550.17 1400.5,550.5C 1407.68,572.214 1415.01,593.881 1422.5,615.5 Z"/></g>
<g><path style="opacity:1" fill="#f89ab5" d="M 1727.5,567.5 C 1727.5,562.167 1727.5,556.833 1727.5,551.5C 1710.83,551.5 1694.17,551.5 1677.5,551.5C 1677.5,556.833 1677.5,562.167 1677.5,567.5C 1676.51,562.025 1676.18,556.358 1676.5,550.5C 1693.83,550.5 1711.17,550.5 1728.5,550.5C 1728.82,556.358 1728.49,562.025 1727.5,567.5 Z"/></g>
<g><path style="opacity:1" fill="#f5a7ba" d="M 763.5,551.5 C 754.167,551.5 744.833,551.5 735.5,551.5C 735.5,573.167 735.5,594.833 735.5,616.5C 734.503,594.673 734.169,572.673 734.5,550.5C 744.348,550.173 754.014,550.506 763.5,551.5 Z"/></g>
<g><path style="opacity:1" fill="#fe80ab" d="M 763.5,551.5 C 778.922,551.748 785.422,559.414 783,574.5C 782.361,577.112 781.194,579.446 779.5,581.5C 789.616,595.723 786.95,606.89 771.5,615C 759.553,616.391 747.553,616.891 735.5,616.5C 735.5,594.833 735.5,573.167 735.5,551.5C 744.833,551.5 754.167,551.5 763.5,551.5 Z"/></g>
<g><path style="opacity:1" fill="#fe80ab" d="M 854.5,551.5 C 854.5,567.5 854.5,583.5 854.5,599.5C 857.167,599.5 859.833,599.5 862.5,599.5C 862.5,610.833 862.5,622.167 862.5,633.5C 856.5,633.5 850.5,633.5 844.5,633.5C 844.822,627.642 844.489,621.975 843.5,616.5C 833.167,616.5 822.833,616.5 812.5,616.5C 812.5,622.167 812.5,627.833 812.5,633.5C 806.5,633.5 800.5,633.5 794.5,633.5C 794.5,622.167 794.5,610.833 794.5,599.5C 796.527,599.662 798.527,599.495 800.5,599C 807.71,584.662 812.043,569.496 813.5,553.5C 826.921,551.546 840.588,550.879 854.5,551.5 Z"/></g>
<g><path style="opacity:1" fill="#fe80ab" d="M 868.5,550.5 C 879.833,550.5 891.167,550.5 902.5,550.5C 902.5,558.167 902.5,565.833 902.5,573.5C 912.476,572.456 920.976,575.456 928,582.5C 931.861,589.494 932.528,596.827 930,604.5C 926.957,609.877 922.457,613.377 916.5,615C 905.555,616.379 894.555,616.879 883.5,616.5C 883.5,600.167 883.5,583.833 883.5,567.5C 878.5,567.5 873.5,567.5 868.5,567.5C 868.5,561.833 868.5,556.167 868.5,550.5 Z"/></g>
<g><path style="opacity:1" fill="#fe81ab" d="M 958.5,616.5 C 951.646,616.824 944.979,616.491 938.5,615.5C 945.116,604.44 952.116,593.606 959.5,583C 952.708,572.585 946.042,562.085 939.5,551.5C 946.476,550.336 953.476,550.169 960.5,551C 963.874,556.916 967.374,562.75 971,568.5C 975.001,563.168 978.501,557.502 981.5,551.5C 988.5,550.167 995.5,550.167 1002.5,551.5C 995.833,562.167 989.167,572.833 982.5,583.5C 989.957,594.247 997.29,605.08 1004.5,616C 997.167,616.667 989.833,616.667 982.5,616C 978.625,609.748 974.625,603.581 970.5,597.5C 966.473,603.851 962.473,610.184 958.5,616.5 Z"/></g>
<g><path style="opacity:1" fill="#f4a8ba" d="M 1032.5,550.5 C 1032.5,550.833 1032.5,551.167 1032.5,551.5C 1026.5,551.5 1020.5,551.5 1014.5,551.5C 1014.5,573.167 1014.5,594.833 1014.5,616.5C 1013.5,594.673 1013.17,572.673 1013.5,550.5C 1019.83,550.5 1026.17,550.5 1032.5,550.5 Z"/></g>
<g><path style="opacity:1" fill="#ff80aa" d="M 1032.5,551.5 C 1032.5,559.167 1032.5,566.833 1032.5,574.5C 1038.5,574.5 1044.5,574.5 1050.5,574.5C 1050.5,566.833 1050.5,559.167 1050.5,551.5C 1056.5,551.5 1062.5,551.5 1068.5,551.5C 1068.5,573.167 1068.5,594.833 1068.5,616.5C 1062.5,616.5 1056.5,616.5 1050.5,616.5C 1050.5,607.833 1050.5,599.167 1050.5,590.5C 1044.5,590.5 1038.5,590.5 1032.5,590.5C 1032.5,599.167 1032.5,607.833 1032.5,616.5C 1026.5,616.5 1020.5,616.5 1014.5,616.5C 1014.5,594.833 1014.5,573.167 1014.5,551.5C 1020.5,551.5 1026.5,551.5 1032.5,551.5 Z"/></g>
<g><path style="opacity:1" fill="#f4a8ba" d="M 1050.5,551.5 C 1050.5,551.167 1050.5,550.833 1050.5,550.5C 1056.83,550.5 1063.17,550.5 1069.5,550.5C 1069.83,572.673 1069.5,594.673 1068.5,616.5C 1068.5,594.833 1068.5,573.167 1068.5,551.5C 1062.5,551.5 1056.5,551.5 1050.5,551.5 Z"/></g>
<g><path style="opacity:1" fill="#f996b3" d="M 1194.5,551.5 C 1185.17,551.5 1175.83,551.5 1166.5,551.5C 1166.5,573.167 1166.5,594.833 1166.5,616.5C 1165.5,594.673 1165.17,572.673 1165.5,550.5C 1175.35,550.173 1185.01,550.506 1194.5,551.5 Z"/></g>
<g><path style="opacity:1" fill="#fe80ab" d="M 1194.5,551.5 C 1209.9,551.728 1216.4,559.395 1214,574.5C 1212.88,577.249 1211.38,579.749 1209.5,582C 1211.92,583.663 1213.75,585.829 1215,588.5C 1218.19,602.962 1212.69,612.128 1198.5,616C 1187.84,616.5 1177.17,616.667 1166.5,616.5C 1166.5,594.833 1166.5,573.167 1166.5,551.5C 1175.83,551.5 1185.17,551.5 1194.5,551.5 Z"/></g>
<g><path style="opacity:1" fill="#fe80ab" d="M 1250.5,551.5 C 1259.83,551.5 1269.17,551.5 1278.5,551.5C 1278.5,573.167 1278.5,594.833 1278.5,616.5C 1272.5,616.5 1266.5,616.5 1260.5,616.5C 1260.5,608.833 1260.5,601.167 1260.5,593.5C 1259.21,593.263 1258.21,593.596 1257.5,594.5C 1252.47,601.543 1247.81,608.876 1243.5,616.5C 1236.31,616.825 1229.31,616.491 1222.5,615.5C 1228.41,606.697 1234.07,597.697 1239.5,588.5C 1231.95,581.787 1229.45,573.453 1232,563.5C 1235.93,556.068 1242.1,552.068 1250.5,551.5 Z"/></g>
<g><path style="opacity:1" fill="#f996b3" d="M 1250.5,551.5 C 1259.99,550.506 1269.65,550.173 1279.5,550.5C 1279.83,572.673 1279.5,594.673 1278.5,616.5C 1278.5,594.833 1278.5,573.167 1278.5,551.5C 1269.17,551.5 1259.83,551.5 1250.5,551.5 Z"/></g>
<g><path style="opacity:1" fill="#f996b3" d="M 1327.5,551.5 C 1318.17,551.5 1308.83,551.5 1299.5,551.5C 1299.5,573.167 1299.5,594.833 1299.5,616.5C 1298.5,594.673 1298.17,572.673 1298.5,550.5C 1308.35,550.173 1318.01,550.506 1327.5,551.5 Z"/></g>
<g><path style="opacity:1" fill="#fe80ab" d="M 1327.5,551.5 C 1342.9,551.728 1349.4,559.395 1347,574.5C 1345.88,577.249 1344.38,579.749 1342.5,582C 1344.92,583.663 1346.75,585.829 1348,588.5C 1351.19,602.962 1345.69,612.128 1331.5,616C 1320.84,616.5 1310.17,616.667 1299.5,616.5C 1299.5,594.833 1299.5,573.167 1299.5,551.5C 1308.83,551.5 1318.17,551.5 1327.5,551.5 Z"/></g>
<g><path style="opacity:1" fill="#f996b3" d="M 1452.5,551.5 C 1446.5,551.5 1440.5,551.5 1434.5,551.5C 1434.5,573.167 1434.5,594.833 1434.5,616.5C 1434.17,616.5 1433.83,616.5 1433.5,616.5C 1433.5,594.5 1433.5,572.5 1433.5,550.5C 1440.02,550.177 1446.36,550.51 1452.5,551.5 Z"/></g>
<g><path style="opacity:1" fill="#fe80ab" d="M 1452.5,551.5 C 1452.5,567.5 1452.5,583.5 1452.5,599.5C 1456.5,599.5 1460.5,599.5 1464.5,599.5C 1465.5,583.675 1465.83,567.675 1465.5,551.5C 1471.5,551.5 1477.5,551.5 1483.5,551.5C 1483.5,567.5 1483.5,583.5 1483.5,599.5C 1487.5,599.5 1491.5,599.5 1495.5,599.5C 1496.5,583.675 1496.83,567.675 1496.5,551.5C 1502.5,551.5 1508.5,551.5 1514.5,551.5C 1514.17,568.009 1514.5,584.342 1515.5,600.5C 1518.17,600.5 1520.83,600.5 1523.5,600.5C 1523.5,611.5 1523.5,622.5 1523.5,633.5C 1517.5,633.5 1511.5,633.5 1505.5,633.5C 1505.5,627.833 1505.5,622.167 1505.5,616.5C 1481.83,616.5 1458.17,616.5 1434.5,616.5C 1434.5,594.833 1434.5,573.167 1434.5,551.5C 1440.5,551.5 1446.5,551.5 1452.5,551.5 Z"/></g>
<g><path style="opacity:1" fill="#f996b3" d="M 1483.5,551.5 C 1477.5,551.5 1471.5,551.5 1465.5,551.5C 1465.83,567.675 1465.5,583.675 1464.5,599.5C 1464.5,583.167 1464.5,566.833 1464.5,550.5C 1471.02,550.177 1477.36,550.51 1483.5,551.5 Z"/></g>
<g><path style="opacity:1" fill="#f4a9ba" d="M 1515.5,600.5 C 1514.5,584.342 1514.17,568.009 1514.5,551.5C 1508.5,551.5 1502.5,551.5 1496.5,551.5C 1496.83,567.675 1496.5,583.675 1495.5,599.5C 1495.5,583.167 1495.5,566.833 1495.5,550.5C 1502.17,550.5 1508.83,550.5 1515.5,550.5C 1515.5,567.167 1515.5,583.833 1515.5,600.5 Z"/></g>
<g><path style="opacity:1" fill="#fe80ab" d="M 1537.5,551.5 C 1543.17,551.5 1548.83,551.5 1554.5,551.5C 1554.17,563.186 1554.5,574.852 1555.5,586.5C 1556.11,586.376 1556.44,586.043 1556.5,585.5C 1563.01,573.796 1570.01,562.462 1577.5,551.5C 1583.83,551.5 1590.17,551.5 1596.5,551.5C 1596.5,573.167 1596.5,594.833 1596.5,616.5C 1591.17,616.5 1585.83,616.5 1580.5,616.5C 1580.67,604.162 1580.5,591.829 1580,579.5C 1579.28,580.044 1578.78,580.711 1578.5,581.5C 1571.89,593.222 1564.89,604.722 1557.5,616C 1550.84,616.5 1544.17,616.666 1537.5,616.5C 1537.5,594.833 1537.5,573.167 1537.5,551.5 Z"/></g>
<g><path style="opacity:1" fill="#f5a7ba" d="M 1537.5,551.5 C 1543.31,550.51 1549.31,550.177 1555.5,550.5C 1555.17,562.345 1555.51,574.012 1556.5,585.5C 1556.44,586.043 1556.11,586.376 1555.5,586.5C 1554.5,574.852 1554.17,563.186 1554.5,551.5C 1548.83,551.5 1543.17,551.5 1537.5,551.5 Z"/></g>
<g><path style="opacity:1" fill="#f996b3" d="M 1577.5,551.5 C 1583.98,550.509 1590.65,550.176 1597.5,550.5C 1597.83,572.673 1597.5,594.673 1596.5,616.5C 1596.5,594.833 1596.5,573.167 1596.5,551.5C 1590.17,551.5 1583.83,551.5 1577.5,551.5 Z"/></g>
<g><path style="opacity:1" fill="#fe81ab" d="M 1633.5,550.5 C 1643.5,550.5 1653.5,550.5 1663.5,550.5C 1663.5,572.5 1663.5,594.5 1663.5,616.5C 1657.17,616.5 1650.83,616.5 1644.5,616.5C 1644.5,608.833 1644.5,601.167 1644.5,593.5C 1642.41,593.561 1640.91,594.561 1640,596.5C 1636.37,602.965 1632.53,609.298 1628.5,615.5C 1621.19,616.665 1613.86,616.831 1606.5,616C 1612.62,606.919 1618.62,597.752 1624.5,588.5C 1616.25,581.567 1613.75,572.901 1617,562.5C 1620.88,556.155 1626.38,552.155 1633.5,550.5 Z"/></g>
<g><path style="opacity:1" fill="#fe80ab" d="M 1727.5,567.5 C 1722.5,567.5 1717.5,567.5 1712.5,567.5C 1712.5,583.833 1712.5,600.167 1712.5,616.5C 1706.17,616.5 1699.83,616.5 1693.5,616.5C 1693.5,600.167 1693.5,583.833 1693.5,567.5C 1688.17,567.5 1682.83,567.5 1677.5,567.5C 1677.5,562.167 1677.5,556.833 1677.5,551.5C 1694.17,551.5 1710.83,551.5 1727.5,551.5C 1727.5,556.833 1727.5,562.167 1727.5,567.5 Z"/></g>
<g><path style="opacity:1" fill="#e9d4cb" d="M 753.5,567.5 C 757.215,567.423 760.881,567.756 764.5,568.5C 764.714,570.144 764.38,571.644 763.5,573C 760.312,574.316 756.978,574.816 753.5,574.5C 753.5,572.167 753.5,569.833 753.5,567.5 Z"/></g>
<g><path style="opacity:1" fill="#e8d7cc" d="M 829.5,567.5 C 831.5,567.5 833.5,567.5 835.5,567.5C 835.5,578.167 835.5,588.833 835.5,599.5C 830.456,599.827 825.456,599.494 820.5,598.5C 824.518,588.448 827.518,578.115 829.5,567.5 Z"/></g>
<g><path style="opacity:1" fill="#e8d7cc" d="M 1113.5,566.5 C 1122.61,565.449 1127.78,569.449 1129,578.5C 1129.85,584.339 1129.18,590.005 1127,595.5C 1121.6,601.286 1115.6,601.952 1109,597.5C 1104.37,588.103 1104.37,578.77 1109,569.5C 1110.65,568.601 1112.15,567.601 1113.5,566.5 Z"/></g>
<g><path style="opacity:1" fill="#e8d5cb" d="M 1184.5,567.5 C 1187.19,567.336 1189.85,567.503 1192.5,568C 1196.5,570 1196.5,572 1192.5,574C 1189.85,574.497 1187.19,574.664 1184.5,574.5C 1184.5,572.167 1184.5,569.833 1184.5,567.5 Z"/></g>
<g><path style="opacity:1" fill="#e9d4cb" d="M 1252.5,567.5 C 1255.17,567.5 1257.83,567.5 1260.5,567.5C 1260.5,570.833 1260.5,574.167 1260.5,577.5C 1251.85,578.231 1249.19,574.898 1252.5,567.5 Z"/></g>
<g><path style="opacity:1" fill="#e8d5cb" d="M 1317.5,567.5 C 1320.19,567.336 1322.85,567.503 1325.5,568C 1329.5,570 1329.5,572 1325.5,574C 1322.85,574.497 1320.19,574.664 1317.5,574.5C 1317.5,572.167 1317.5,569.833 1317.5,567.5 Z"/></g>
<g><path style="opacity:1" fill="#e9d5cb" d="M 1637.5,567.5 C 1639.83,567.5 1642.17,567.5 1644.5,567.5C 1644.5,570.833 1644.5,574.167 1644.5,577.5C 1640.81,578.029 1637.64,577.029 1635,574.5C 1633.92,571.341 1634.75,569.008 1637.5,567.5 Z"/></g>
<g><path style="opacity:1" fill="#f0b7c0" d="M 1032.5,550.5 C 1033.49,557.982 1033.83,565.648 1033.5,573.5C 1038.83,573.5 1044.17,573.5 1049.5,573.5C 1049.17,565.648 1049.51,557.982 1050.5,550.5C 1050.5,550.833 1050.5,551.167 1050.5,551.5C 1050.5,559.167 1050.5,566.833 1050.5,574.5C 1044.5,574.5 1038.5,574.5 1032.5,574.5C 1032.5,566.833 1032.5,559.167 1032.5,551.5C 1032.5,551.167 1032.5,550.833 1032.5,550.5 Z"/></g>
<g><path style="opacity:1" fill="#ead0c9" d="M 1389.5,574.5 C 1391,577.654 1392.34,580.987 1393.5,584.5C 1391.26,585.474 1388.92,585.808 1386.5,585.5C 1387.3,581.777 1388.3,578.11 1389.5,574.5 Z"/></g>
<g><path style="opacity:1" fill="#f997b3" d="M 1580.5,616.5 C 1579.83,604.833 1579.17,593.167 1578.5,581.5C 1578.78,580.711 1579.28,580.044 1580,579.5C 1580.5,591.829 1580.67,604.162 1580.5,616.5 Z"/></g>
<g><path style="opacity:1" fill="#e8d8cc" d="M 902.5,590.5 C 905.607,590.351 908.607,590.851 911.5,592C 913.22,595.086 912.553,597.419 909.5,599C 907.19,599.497 904.857,599.663 902.5,599.5C 902.5,596.5 902.5,593.5 902.5,590.5 Z"/></g>
<g><path style="opacity:1" fill="#efbcc1" d="M 762.5,591.5 C 759.833,591.5 757.167,591.5 754.5,591.5C 754.5,594.167 754.5,596.833 754.5,599.5C 756.167,599.5 757.833,599.5 759.5,599.5C 757.735,600.461 755.735,600.795 753.5,600.5C 753.5,597.167 753.5,593.833 753.5,590.5C 756.713,590.19 759.713,590.523 762.5,591.5 Z"/></g>
<g><path style="opacity:1" fill="#e8d8cc" d="M 762.5,591.5 C 763.496,591.414 764.329,591.748 765,592.5C 766.328,597.338 764.494,599.671 759.5,599.5C 757.833,599.5 756.167,599.5 754.5,599.5C 754.5,596.833 754.5,594.167 754.5,591.5C 757.167,591.5 759.833,591.5 762.5,591.5 Z"/></g>
<g><path style="opacity:1" fill="#efbdc2" d="M 1050.5,616.5 C 1049.51,608.35 1049.17,600.017 1049.5,591.5C 1044.17,591.5 1038.83,591.5 1033.5,591.5C 1033.83,600.017 1033.49,608.35 1032.5,616.5C 1032.5,607.833 1032.5,599.167 1032.5,590.5C 1038.5,590.5 1044.5,590.5 1050.5,590.5C 1050.5,599.167 1050.5,607.833 1050.5,616.5 Z"/></g>
<g><path style="opacity:1" fill="#e8d6cc" d="M 1184.5,590.5 C 1188.27,590.263 1191.94,590.763 1195.5,592C 1196.98,594.592 1196.65,596.925 1194.5,599C 1191.18,599.498 1187.85,599.665 1184.5,599.5C 1184.5,596.5 1184.5,593.5 1184.5,590.5 Z"/></g>
<g><path style="opacity:1" fill="#e8d6cc" d="M 1317.5,590.5 C 1321.27,590.263 1324.94,590.763 1328.5,592C 1329.98,594.592 1329.65,596.925 1327.5,599C 1324.18,599.498 1320.85,599.665 1317.5,599.5C 1317.5,596.5 1317.5,593.5 1317.5,590.5 Z"/></g>
<g><path style="opacity:1" fill="#eec1c3" d="M 1257.5,594.5 C 1258.21,593.596 1259.21,593.263 1260.5,593.5C 1260.5,601.167 1260.5,608.833 1260.5,616.5C 1260.15,608.943 1259.15,601.61 1257.5,594.5 Z"/></g>
<g><path style="opacity:1" fill="#eec0c3" d="M 938.5,615.5 C 944.979,616.491 951.646,616.824 958.5,616.5C 951.656,617.819 944.656,617.819 937.5,616.5C 937.624,615.893 937.957,615.56 938.5,615.5 Z"/></g>
<g><path style="opacity:1" fill="#edc2c4" d="M 1222.5,615.5 C 1229.31,616.491 1236.31,616.825 1243.5,616.5C 1236.32,617.819 1228.99,617.819 1221.5,616.5C 1221.62,615.893 1221.96,615.56 1222.5,615.5 Z"/></g>
<g><path style="opacity:1" fill="#eec0c3" d="M 1357.5,614.5 C 1363.75,616.459 1370.42,617.126 1377.5,616.5C 1370.69,617.491 1363.69,617.825 1356.5,617.5C 1356.26,616.209 1356.6,615.209 1357.5,614.5 Z"/></g>
<g><path style="opacity:1" fill="#edc2c4" d="M 1422.5,615.5 C 1423.04,615.56 1423.38,615.893 1423.5,616.5C 1416.34,617.819 1409.34,617.819 1402.5,616.5C 1409.35,616.824 1416.02,616.491 1422.5,615.5 Z"/></g>
<g><path style="opacity:1" fill="#edc2c4" d="M 1433.5,616.5 C 1433.83,616.5 1434.17,616.5 1434.5,616.5C 1458.17,616.5 1481.83,616.5 1505.5,616.5C 1505.5,622.167 1505.5,627.833 1505.5,633.5C 1505.5,633.833 1505.5,634.167 1505.5,634.5C 1504.51,629.025 1504.18,623.358 1504.5,617.5C 1480.66,617.831 1456.99,617.498 1433.5,616.5 Z"/></g>
<g><path style="opacity:1" fill="#f2b3be" d="M 843.5,616.5 C 843.5,616.833 843.5,617.167 843.5,617.5C 833.5,617.5 823.5,617.5 813.5,617.5C 813.5,623.167 813.5,628.833 813.5,634.5C 806.978,634.823 800.645,634.49 794.5,633.5C 800.5,633.5 806.5,633.5 812.5,633.5C 812.5,627.833 812.5,622.167 812.5,616.5C 822.833,616.5 833.167,616.5 843.5,616.5 Z"/></g>
<g><path style="opacity:1" fill="#f3acbc" d="M 843.5,616.5 C 844.489,621.975 844.822,627.642 844.5,633.5C 850.5,633.5 856.5,633.5 862.5,633.5C 856.355,634.49 850.022,634.823 843.5,634.5C 843.5,628.833 843.5,623.167 843.5,617.5C 843.5,617.167 843.5,616.833 843.5,616.5 Z"/></g>
<g><path style="opacity:1" fill="#f1b4bf" d="M 1523.5,600.5 C 1524.49,611.654 1524.83,622.988 1524.5,634.5C 1518.17,634.5 1511.83,634.5 1505.5,634.5C 1505.5,634.167 1505.5,633.833 1505.5,633.5C 1511.5,633.5 1517.5,633.5 1523.5,633.5C 1523.5,622.5 1523.5,611.5 1523.5,600.5 Z"/></g>
<g><path style="opacity:1" fill="#a3c1ef" d="M 1320.5,660.5 C 1323.42,660.46 1326.09,661.293 1328.5,663C 1336.95,669.12 1345.12,675.62 1353,682.5C 1349.03,698.912 1340.53,712.745 1327.5,724C 1313.34,734.71 1297.34,739.543 1279.5,738.5C 1254.35,733.906 1230.68,737.74 1208.5,750C 1188.27,764.98 1172.1,783.48 1160,805.5C 1148.89,830.229 1133.06,851.396 1112.5,869C 1093.91,881.457 1073.58,889.79 1051.5,894C 980.666,908.455 913.999,897.788 851.5,862C 843.664,857.337 836.497,851.837 830,845.5C 829.131,843.419 828.631,841.253 828.5,839C 832.595,814.326 837.428,789.826 843,765.5C 845.833,759.39 850.333,757.89 856.5,761C 899.759,781.865 945.092,795.865 992.5,803C 1014.96,806.35 1036.3,803.016 1056.5,793C 1075.64,782.538 1092.48,769.038 1107,752.5C 1121.06,734.771 1136.22,717.938 1152.5,702C 1165.29,692.625 1179.62,687.625 1195.5,687C 1211.33,686.673 1227.17,686.839 1243,687.5C 1263.99,689.31 1283.82,685.476 1302.5,676C 1309.01,671.313 1315.01,666.146 1320.5,660.5 Z"/></g>
<g><path style="opacity:1" fill="#fefefe" d="M 1484.5,693.5 C 1498.16,691.878 1509.33,696.212 1518,706.5C 1519.72,709.674 1521.06,713.007 1522,716.5C 1522.67,723.5 1522.67,730.5 1522,737.5C 1519.5,750.667 1511.67,758.5 1498.5,761C 1471.58,763.08 1458.75,750.58 1460,723.5C 1461.36,707.699 1469.53,697.699 1484.5,693.5 Z"/></g>
<g><path style="opacity:1" fill="#fefefe" d="M 1695.5,694.5 C 1702.42,694.188 1709.26,694.521 1716,695.5C 1723.8,717.078 1731.3,738.745 1738.5,760.5C 1731.8,760.83 1725.13,760.497 1718.5,759.5C 1716.97,755.563 1715.63,751.563 1714.5,747.5C 1708.54,746.504 1702.54,746.171 1696.5,746.5C 1695.47,751.098 1694.13,755.598 1692.5,760C 1685.81,760.831 1679.14,760.664 1672.5,759.5C 1680.02,737.754 1687.68,716.087 1695.5,694.5 Z"/></g>
<g><path style="opacity:1" fill="#fefefe" d="M 1769.5,694.5 C 1780.15,693.14 1790.15,694.973 1799.5,700C 1797.07,705.117 1794.74,710.284 1792.5,715.5C 1787.9,713.116 1783.07,711.449 1778,710.5C 1771.98,710.672 1768.31,713.672 1767,719.5C 1766.33,725.167 1766.33,730.833 1767,736.5C 1768.84,742.191 1772.67,744.857 1778.5,744.5C 1784.64,743.787 1790.64,742.453 1796.5,740.5C 1796.83,746.206 1796.5,751.872 1795.5,757.5C 1759.22,767.725 1743.39,754.058 1748,716.5C 1751.36,705.309 1758.53,697.976 1769.5,694.5 Z"/></g>
<g><path style="opacity:1" fill="#f8f3ef" d="M 1442.5,760.5 C 1442.5,738.833 1442.5,717.167 1442.5,695.5C 1425.17,695.5 1407.83,695.5 1390.5,695.5C 1390.5,717.167 1390.5,738.833 1390.5,760.5C 1389.5,738.673 1389.17,716.673 1389.5,694.5C 1407.5,694.5 1425.5,694.5 1443.5,694.5C 1443.83,716.673 1443.5,738.673 1442.5,760.5 Z"/></g>
<g><path style="opacity:1" fill="#fefffe" d="M 1442.5,760.5 C 1436.5,760.5 1430.5,760.5 1424.5,760.5C 1424.5,744.167 1424.5,727.833 1424.5,711.5C 1419.17,711.5 1413.83,711.5 1408.5,711.5C 1408.5,727.833 1408.5,744.167 1408.5,760.5C 1402.5,760.5 1396.5,760.5 1390.5,760.5C 1390.5,738.833 1390.5,717.167 1390.5,695.5C 1407.83,695.5 1425.17,695.5 1442.5,695.5C 1442.5,717.167 1442.5,738.833 1442.5,760.5 Z"/></g>
<g><path style="opacity:1" fill="#fefefe" d="M 1552.5,694.5 C 1565.83,694.5 1579.17,694.5 1592.5,694.5C 1592.5,710.833 1592.5,727.167 1592.5,743.5C 1595.17,743.5 1597.83,743.5 1600.5,743.5C 1600.5,755.167 1600.5,766.833 1600.5,778.5C 1594.5,778.5 1588.5,778.5 1582.5,778.5C 1582.5,772.5 1582.5,766.5 1582.5,760.5C 1572.17,760.5 1561.83,760.5 1551.5,760.5C 1551.5,766.5 1551.5,772.5 1551.5,778.5C 1545.17,778.5 1538.83,778.5 1532.5,778.5C 1532.5,766.833 1532.5,755.167 1532.5,743.5C 1537.06,744.62 1539.89,742.953 1541,738.5C 1546.79,724.316 1550.62,709.649 1552.5,694.5 Z"/></g>
<g><path style="opacity:1" fill="#fefefe" d="M 1614.5,694.5 C 1620.83,694.5 1627.17,694.5 1633.5,694.5C 1633.33,701.841 1633.5,709.174 1634,716.5C 1639.17,709.333 1644.33,702.167 1649.5,695C 1656.52,694.169 1663.52,694.336 1670.5,695.5C 1662.59,705.655 1654.92,715.988 1647.5,726.5C 1655.5,737.5 1663.5,748.5 1671.5,759.5C 1664.19,760.665 1656.86,760.831 1649.5,760C 1644.46,752.745 1639.29,745.578 1634,738.5C 1633.5,745.826 1633.33,753.159 1633.5,760.5C 1627.17,760.5 1620.83,760.5 1614.5,760.5C 1614.5,738.5 1614.5,716.5 1614.5,694.5 Z"/></g>
<g><path style="opacity:1" fill="#fefefe" d="M 1807.5,694.5 C 1824.5,694.5 1841.5,694.5 1858.5,694.5C 1858.5,700.167 1858.5,705.833 1858.5,711.5C 1853.17,711.5 1847.83,711.5 1842.5,711.5C 1842.5,727.833 1842.5,744.167 1842.5,760.5C 1836.17,760.5 1829.83,760.5 1823.5,760.5C 1823.5,744.167 1823.5,727.833 1823.5,711.5C 1818.17,711.5 1812.83,711.5 1807.5,711.5C 1807.5,705.833 1807.5,700.167 1807.5,694.5 Z"/></g>
<g><path style="opacity:1" fill="#e8d9cd" d="M 1487.5,710.5 C 1495.74,709.198 1500.91,712.531 1503,720.5C 1504.14,727.816 1503.14,734.816 1500,741.5C 1494.27,745.44 1488.6,745.44 1483,741.5C 1478.9,732.958 1478.57,724.291 1482,715.5C 1483.73,713.598 1485.56,711.931 1487.5,710.5 Z"/></g>
<g><path style="opacity:1" fill="#e8d9cd" d="M 1567.5,711.5 C 1569.5,711.5 1571.5,711.5 1573.5,711.5C 1573.5,722.167 1573.5,732.833 1573.5,743.5C 1568.49,743.666 1563.49,743.499 1558.5,743C 1563.07,732.978 1566.07,722.478 1567.5,711.5 Z"/></g>
<g><path style="opacity:1" fill="#e9dbd0" d="M 1705.5,718.5 C 1707.07,721.907 1708.07,725.573 1708.5,729.5C 1706.5,729.5 1704.5,729.5 1702.5,729.5C 1703.04,725.686 1704.04,722.019 1705.5,718.5 Z"/></g>
<g><path style="opacity:1" fill="#a7c2ed" d="M 1351.5,826.5 C 1356.64,825.426 1360.47,827.093 1363,831.5C 1365,839.181 1363.17,845.681 1357.5,851C 1347.54,852.281 1344.37,848.115 1348,838.5C 1350.74,834.218 1354.07,833.552 1358,836.5C 1358.56,831.888 1356.4,829.554 1351.5,829.5C 1350.21,828.473 1350.21,827.473 1351.5,826.5 Z"/></g>
<g><path style="opacity:1" fill="#a7c2ed" d="M 1172.5,828.5 C 1174.2,828.34 1175.87,828.506 1177.5,829C 1176.03,833.744 1175.19,838.577 1175,843.5C 1178.5,838.667 1182,833.833 1185.5,829C 1187.47,828.505 1189.47,828.338 1191.5,828.5C 1190.06,836.146 1188.73,843.813 1187.5,851.5C 1185.83,851.5 1184.17,851.5 1182.5,851.5C 1183.54,846.476 1184.37,841.476 1185,836.5C 1181.5,841.333 1178,846.167 1174.5,851C 1172.53,851.495 1170.53,851.662 1168.5,851.5C 1169.58,843.786 1170.91,836.12 1172.5,828.5 Z"/></g>
<g><path style="opacity:1" fill="#a8c2ed" d="M 1199.5,833.5 C 1202.48,833.104 1205.15,833.771 1207.5,835.5C 1207,836.5 1206.5,837.5 1206,838.5C 1204,837.167 1202,837.167 1200,838.5C 1198.71,841.351 1198.21,844.351 1198.5,847.5C 1200.59,847.682 1202.59,847.348 1204.5,846.5C 1205.81,850.316 1204.31,851.983 1200,851.5C 1197.3,851.815 1195.3,850.815 1194,848.5C 1192.09,841.97 1193.92,836.97 1199.5,833.5 Z"/></g>
<g><path style="opacity:1" fill="#a7c2ed" d="M 1211.5,833.5 C 1212.83,833.5 1214.17,833.5 1215.5,833.5C 1215.35,834.552 1215.52,835.552 1216,836.5C 1219.18,832.576 1222.18,832.576 1225,836.5C 1228.13,833.133 1231.47,832.799 1235,835.5C 1235.59,840.335 1234.92,845.001 1233,849.5C 1231.95,851.107 1230.45,851.773 1228.5,851.5C 1228.85,846.784 1229.51,842.117 1230.5,837.5C 1228.61,837.297 1227.11,837.963 1226,839.5C 1224.01,843.253 1223.18,847.253 1223.5,851.5C 1221.83,851.5 1220.17,851.5 1218.5,851.5C 1218.85,846.784 1219.51,842.117 1220.5,837.5C 1218.61,837.297 1217.11,837.963 1216,839.5C 1214.46,843.346 1213.63,847.346 1213.5,851.5C 1211.83,851.5 1210.17,851.5 1208.5,851.5C 1209.28,845.461 1210.28,839.461 1211.5,833.5 Z"/></g>
<g><path style="opacity:1" fill="#a6c2ee" d="M 1244.5,833.5 C 1250.39,832.43 1253.72,834.763 1254.5,840.5C 1253.1,851.117 1247.93,853.784 1239,848.5C 1237.09,841.97 1238.92,836.97 1244.5,833.5 Z"/></g>
<g><path style="opacity:1" fill="#a7c2ed" d="M 1259.5,833.5 C 1260.83,833.5 1262.17,833.5 1263.5,833.5C 1263.35,834.552 1263.52,835.552 1264,836.5C 1266.5,832.998 1269.33,832.665 1272.5,835.5C 1274.34,841.478 1273.01,846.644 1268.5,851C 1266.23,851.758 1264.06,851.591 1262,850.5C 1260.45,853.312 1259.62,856.312 1259.5,859.5C 1257.83,859.5 1256.17,859.5 1254.5,859.5C 1256.42,850.885 1258.09,842.219 1259.5,833.5 Z"/></g>
<g><path style="opacity:1" fill="#a7c2ed" d="M 1329.5,833.5 C 1331.86,833.337 1334.19,833.503 1336.5,834C 1336.96,834.414 1337.29,834.914 1337.5,835.5C 1335.52,837.024 1333.18,838.024 1330.5,838.5C 1328.73,841.193 1328.06,844.193 1328.5,847.5C 1330.79,847.756 1332.96,847.423 1335,846.5C 1336.19,850.482 1334.69,852.149 1330.5,851.5C 1323.89,850.727 1321.72,847.06 1324,840.5C 1324.97,837.379 1326.8,835.046 1329.5,833.5 Z"/></g>
<g><path style="opacity:1" fill="#a6c2ee" d="M 1438.5,833.5 C 1441.16,833.162 1443.49,833.829 1445.5,835.5C 1446.52,834.147 1447.86,833.48 1449.5,833.5C 1448.86,838.853 1448.03,844.186 1447,849.5C 1446.48,850.516 1445.65,851.182 1444.5,851.5C 1441.58,851.101 1438.58,850.934 1435.5,851C 1432.15,847.581 1431.65,843.748 1434,839.5C 1435.33,837.34 1436.83,835.34 1438.5,833.5 Z"/></g>
<g><path style="opacity:1" fill="#a5c1ee" d="M 1490.5,833.5 C 1499.83,833.019 1502.99,837.352 1500,846.5C 1497.46,851.069 1493.63,852.569 1488.5,851C 1487.33,850.5 1486.5,849.667 1486,848.5C 1485.33,845.167 1485.33,841.833 1486,838.5C 1487.71,836.963 1489.21,835.296 1490.5,833.5 Z"/></g>
<g><path style="opacity:1" fill="#a7c2ed" d="M 1506.5,833.5 C 1508.45,833.227 1509.95,833.893 1511,835.5C 1516.76,832.083 1519.93,833.75 1520.5,840.5C 1520.42,848.091 1516.75,851.591 1509.5,851C 1509,850.5 1508.5,850 1508,849.5C 1507.17,852.793 1506.67,856.126 1506.5,859.5C 1504.83,859.5 1503.17,859.5 1501.5,859.5C 1503.38,850.883 1505.05,842.216 1506.5,833.5 Z"/></g>
<g><path style="opacity:1" fill="#a6c2ee" d="M 1529.5,833.5 C 1537.99,832.471 1540.33,835.637 1536.5,843C 1533.88,843.822 1531.22,844.322 1528.5,844.5C 1528.33,845.822 1528.66,846.989 1529.5,848C 1531.85,848.334 1534.18,848.167 1536.5,847.5C 1536.64,849.124 1535.97,850.29 1534.5,851C 1524.83,852.989 1521.33,849.156 1524,839.5C 1525.36,836.977 1527.19,834.977 1529.5,833.5 Z"/></g>
<g><path style="opacity:1" fill="#a8c2ed" d="M 1278.5,833.5 C 1280.17,833.5 1281.83,833.5 1283.5,833.5C 1282.96,838.186 1282.3,842.853 1281.5,847.5C 1282.98,847.762 1284.31,847.429 1285.5,846.5C 1287.11,842.647 1288.27,838.647 1289,834.5C 1290.36,833.62 1291.86,833.286 1293.5,833.5C 1292.5,839.501 1291.5,845.501 1290.5,851.5C 1288.55,851.773 1287.05,851.107 1286,849.5C 1283,852.167 1280,852.167 1277,849.5C 1276.95,844.133 1277.45,838.8 1278.5,833.5 Z"/></g>
<g><path style="opacity:1" fill="#a8c2ed" d="M 1298.5,833.5 C 1300.17,833.5 1301.83,833.5 1303.5,833.5C 1302.2,838.062 1301.54,842.729 1301.5,847.5C 1303.39,847.703 1304.89,847.037 1306,845.5C 1307.28,841.586 1308.12,837.586 1308.5,833.5C 1310.17,833.5 1311.83,833.5 1313.5,833.5C 1312.5,839.499 1311.5,845.499 1310.5,851.5C 1308.55,851.773 1307.05,851.107 1306,849.5C 1302.93,852.059 1299.93,852.059 1297,849.5C 1296.52,844.082 1297.02,838.749 1298.5,833.5 Z"/></g>
<g><path style="opacity:1" fill="#a7c2ed" d="M 1366.5,833.5 C 1370.23,833.177 1373.89,833.511 1377.5,834.5C 1376.65,836.409 1376.32,838.409 1376.5,840.5C 1382.99,839.632 1385.49,842.299 1384,848.5C 1380.74,851.428 1376.91,852.262 1372.5,851C 1370.99,849.527 1370.33,847.693 1370.5,845.5C 1370.84,842.824 1371.17,840.157 1371.5,837.5C 1369.83,837.5 1368.17,837.5 1366.5,837.5C 1366.5,836.167 1366.5,834.833 1366.5,833.5 Z"/></g>
<g><path style="opacity:1" fill="#a7c2ed" d="M 1389.5,833.5 C 1393.42,832.93 1395.59,834.597 1396,838.5C 1397.35,837.315 1398.52,835.981 1399.5,834.5C 1401.42,833.359 1403.42,833.192 1405.5,834C 1403.15,837.011 1400.82,840.011 1398.5,843C 1399.94,845.705 1400.94,848.538 1401.5,851.5C 1399.83,851.5 1398.17,851.5 1396.5,851.5C 1396.13,845.184 1394.47,844.851 1391.5,850.5C 1389.58,851.641 1387.58,851.808 1385.5,851C 1387.85,847.989 1390.18,844.989 1392.5,842C 1391.59,839.105 1390.59,836.272 1389.5,833.5 Z"/></g>
<g><path style="opacity:1" fill="#a8c2ed" d="M 1415.5,833.5 C 1417.17,833.5 1418.83,833.5 1420.5,833.5C 1420.33,835.861 1419.99,838.194 1419.5,840.5C 1424.5,840.875 1426.5,838.542 1425.5,833.5C 1427.17,833.5 1428.83,833.5 1430.5,833.5C 1429.71,839.549 1428.71,845.549 1427.5,851.5C 1425.83,851.5 1424.17,851.5 1422.5,851.5C 1422.67,849.139 1423.01,846.806 1423.5,844.5C 1418.09,843.735 1416.09,846.069 1417.5,851.5C 1415.83,851.5 1414.17,851.5 1412.5,851.5C 1413.28,845.461 1414.28,839.461 1415.5,833.5 Z"/></g>
<g><path style="opacity:1" fill="#a8c2ed" d="M 1462.5,833.5 C 1464.83,833.5 1467.17,833.5 1469.5,833.5C 1470.08,837.142 1470.58,840.809 1471,844.5C 1472.58,841.006 1474.41,837.673 1476.5,834.5C 1478.83,833.167 1481.17,833.167 1483.5,834.5C 1481.6,840.007 1480.6,845.674 1480.5,851.5C 1478.83,851.5 1477.17,851.5 1475.5,851.5C 1478.69,837.26 1477.52,836.927 1472,850.5C 1470.3,851.406 1468.47,851.739 1466.5,851.5C 1466.78,835.682 1465.78,835.682 1463.5,851.5C 1462.17,851.5 1460.83,851.5 1459.5,851.5C 1460.24,845.445 1461.24,839.445 1462.5,833.5 Z"/></g>
<g><path style="opacity:1" fill="#e4d7ce" d="M 1245.5,837.5 C 1246.82,837.33 1247.99,837.663 1249,838.5C 1250.64,843.923 1248.8,846.923 1243.5,847.5C 1243.03,843.838 1243.7,840.505 1245.5,837.5 Z"/></g>
<g><path style="opacity:1" fill="#e4d7ce" d="M 1265.5,837.5 C 1266.5,837.5 1267.5,837.5 1268.5,837.5C 1268.65,840.607 1268.15,843.607 1267,846.5C 1265.64,847.38 1264.14,847.714 1262.5,847.5C 1261.86,843.567 1262.86,840.234 1265.5,837.5 Z"/></g>
<g><path style="opacity:1" fill="#e1d6d0" d="M 1440.5,837.5 C 1443.24,837.077 1444.58,838.244 1444.5,841C 1444.25,845.612 1442.08,847.445 1438,846.5C 1437.13,843.007 1437.96,840.007 1440.5,837.5 Z"/></g>
<g><path style="opacity:1" fill="#e2d7cf" d="M 1492.5,837.5 C 1495.24,837.077 1496.58,838.244 1496.5,841C 1496.29,843.932 1494.96,846.099 1492.5,847.5C 1490.26,847.426 1489.26,846.259 1489.5,844C 1489.84,841.489 1490.84,839.322 1492.5,837.5 Z"/></g>
<g><path style="opacity:1" fill="#e5d7ce" d="M 1511.5,837.5 C 1514.24,837.077 1515.58,838.244 1515.5,841C 1515.4,845.102 1513.4,847.269 1509.5,847.5C 1509.15,843.915 1509.82,840.582 1511.5,837.5 Z"/></g>
<g><path style="opacity:1" fill="#ddd5d2" d="M 1531.5,836.5 C 1533,836.415 1534,837.081 1534.5,838.5C 1533.18,841.329 1531.18,841.996 1528.5,840.5C 1529.52,839.148 1530.52,837.815 1531.5,836.5 Z"/></g>
<g><path style="opacity:1" fill="#e4d7ce" d="M 1353.5,838.5 C 1358.36,838.892 1359.53,841.226 1357,845.5C 1354.14,848.435 1352.31,847.935 1351.5,844C 1351.76,841.991 1352.42,840.157 1353.5,838.5 Z"/></g>
<g><path style="opacity:1" fill="#e3d7cf" d="M 1374.5,844.5 C 1376.17,844.5 1377.83,844.5 1379.5,844.5C 1379.65,848.161 1378.15,849.161 1375,847.5C 1374.52,846.552 1374.35,845.552 1374.5,844.5 Z"/></g>
</svg>
